<?xml version="1.0" encoding="UTF-8" standalone="no"?>
<!-- Created with Inkscape (http://www.inkscape.org/) -->

<svg
   xmlns:dc="http://purl.org/dc/elements/1.1/"
   xmlns:cc="http://creativecommons.org/ns#"
   xmlns:rdf="http://www.w3.org/1999/02/22-rdf-syntax-ns#"
   xmlns:svg="http://www.w3.org/2000/svg"
   xmlns="http://www.w3.org/2000/svg"
   xmlns:sodipodi="http://sodipodi.sourceforge.net/DTD/sodipodi-0.dtd"
   xmlns:inkscape="http://www.inkscape.org/namespaces/inkscape"
   width="2160"
   height="1620"
   id="svg3914"
   version="1.1"
   inkscape:version="0.48.2 r9819"
   sodipodi:docname="New document 1">
  <defs
     id="defs3916" />
  <sodipodi:namedview
     id="base"
     pagecolor="#ffffff"
     bordercolor="#666666"
     borderopacity="1.0"
     inkscape:pageopacity="0.0"
     inkscape:pageshadow="2"
     inkscape:zoom="0.98994949"
     inkscape:cx="547.70947"
     inkscape:cy="133.05982"
     inkscape:document-units="mm"
     inkscape:current-layer="layer1"
     showgrid="true"
     units="mm"
     inkscape:window-width="1920"
     inkscape:window-height="1058"
     inkscape:window-x="1912"
     inkscape:window-y="-8"
     inkscape:window-maximized="1">
    <inkscape:grid
       type="xygrid"
       id="grid3922"
       empspacing="4"
       visible="true"
       enabled="true"
       snapvisiblegridlinesonly="true"
       units="mm"
       spacingx="0.5mm"
       spacingy="0.5mm" />
  </sodipodi:namedview>
  <metadata
     id="metadata3919">
    <rdf:RDF>
      <cc:Work
         rdf:about="">
        <dc:format>image/svg+xml</dc:format>
        <dc:type
           rdf:resource="http://purl.org/dc/dcmitype/StillImage" />
        <dc:title></dc:title>
      </cc:Work>
    </rdf:RDF>
  </metadata>
  <g
     inkscape:label="Layer 1"
     inkscape:groupmode="layer"
     id="layer1"
     transform="translate(0,567.64025)">
    <g
       id="g3007"
       transform="matrix(0,1,-1,0,1661.0645,521.34206)">
      <path
         transform="matrix(0.0921625,0,0,0.06144167,197.36504,1011.0753)"
         d="m 170.07875,145.98425 c 0,46.96595 -25.38228,85.03937 -56.69292,85.03937 -31.310628,0 -56.692909,-38.07342 -56.692909,-85.03937 0,-46.965943 25.382281,-85.039365 56.692909,-85.039365 31.31064,0 56.69292,38.073422 56.69292,85.039365 z"
         sodipodi:ry="85.039368"
         sodipodi:rx="56.692913"
         sodipodi:cy="145.98425"
         sodipodi:cx="113.38583"
         id="path2983"
         style="fill:none;stroke:#000000;stroke-width:2.39201498;stroke-linecap:butt;stroke-linejoin:round;stroke-miterlimit:4;stroke-opacity:1;stroke-dasharray:none;stroke-dashoffset:0"
         sodipodi:type="arc" />
      <path
         sodipodi:type="arc"
         style="fill:none;stroke:#000000;stroke-width:2.39201498;stroke-linecap:butt;stroke-linejoin:round;stroke-miterlimit:4;stroke-opacity:1;stroke-dasharray:none;stroke-dashoffset:0"
         id="path2985"
         sodipodi:cx="113.38583"
         sodipodi:cy="145.98425"
         sodipodi:rx="56.692913"
         sodipodi:ry="85.039368"
         d="m 170.07875,145.98425 c 0,46.96595 -25.38228,85.03937 -56.69292,85.03937 -31.310628,0 -56.692909,-38.07342 -56.692909,-85.03937 0,-46.965943 25.382281,-85.039365 56.692909,-85.039365 31.31064,0 56.69292,38.073422 56.69292,85.039365 z"
         transform="matrix(0.0921625,0,0,0.06144167,17.365039,858.07527)" />
      <path
         transform="matrix(0.0921625,0,0,0.06144167,417.86504,867.07527)"
         d="m 170.07875,145.98425 c 0,46.96595 -25.38228,85.03937 -56.69292,85.03937 -31.310628,0 -56.692909,-38.07342 -56.692909,-85.03937 0,-46.965943 25.382281,-85.039365 56.692909,-85.039365 31.31064,0 56.69292,38.073422 56.69292,85.039365 z"
         sodipodi:ry="85.039368"
         sodipodi:rx="56.692913"
         sodipodi:cy="145.98425"
         sodipodi:cx="113.38583"
         id="path2987"
         style="fill:none;stroke:#000000;stroke-width:2.39201498;stroke-linecap:butt;stroke-linejoin:round;stroke-miterlimit:4;stroke-opacity:1;stroke-dasharray:none;stroke-dashoffset:0"
         sodipodi:type="arc" />
      <path
         sodipodi:type="arc"
         style="fill:none;stroke:#000000;stroke-width:2.39201498;stroke-linecap:butt;stroke-linejoin:round;stroke-miterlimit:4;stroke-opacity:1;stroke-dasharray:none;stroke-dashoffset:0"
         id="path2989"
         sodipodi:cx="113.38583"
         sodipodi:cy="145.98425"
         sodipodi:rx="56.692913"
         sodipodi:ry="85.039368"
         d="m 170.07875,145.98425 c 0,46.96595 -25.38228,85.03937 -56.69292,85.03937 -31.310628,0 -56.692909,-38.07342 -56.692909,-85.03937 0,-46.965943 25.382281,-85.039365 56.692909,-85.039365 31.31064,0 56.69292,38.073422 56.69292,85.039365 z"
         transform="matrix(0.0921625,0,0,0.06144167,282.86504,867.07527)" />
    </g>
    <g
       id="g3001"
       transform="translate(-24.893143,-15.944855)">
      <path
         transform="matrix(0.0921625,0,0,0.06144167,537.08102,958.35086)"
         d="m 170.07875,145.98425 c 0,46.96595 -25.38228,85.03937 -56.69292,85.03937 -31.310628,0 -56.692909,-38.07342 -56.692909,-85.03937 0,-46.965943 25.382281,-85.039365 56.692909,-85.039365 31.31064,0 56.69292,38.073422 56.69292,85.039365 z"
         sodipodi:ry="85.039368"
         sodipodi:rx="56.692913"
         sodipodi:cy="145.98425"
         sodipodi:cx="113.38583"
         id="path2991"
         style="fill:none;stroke:#000000;stroke-width:2.39201498;stroke-linecap:butt;stroke-linejoin:round;stroke-miterlimit:4;stroke-opacity:1;stroke-dasharray:none;stroke-dashoffset:0"
         sodipodi:type="arc" />
      <path
         sodipodi:type="arc"
         style="fill:none;stroke:#000000;stroke-width:2.39201498;stroke-linecap:butt;stroke-linejoin:round;stroke-miterlimit:4;stroke-opacity:1;stroke-dasharray:none;stroke-dashoffset:0"
         id="path2993"
         sodipodi:cx="113.38583"
         sodipodi:cy="145.98425"
         sodipodi:rx="56.692913"
         sodipodi:ry="85.039368"
         d="m 170.07875,145.98425 c 0,46.96595 -25.38228,85.03937 -56.69292,85.03937 -31.310628,0 -56.692909,-38.07342 -56.692909,-85.03937 0,-46.965943 25.382281,-85.039365 56.692909,-85.039365 31.31064,0 56.69292,38.073422 56.69292,85.039365 z"
         transform="matrix(0.0921625,0,0,0.06144167,926.84479,958.35086)" />
      <path
         sodipodi:type="arc"
         style="fill:none;stroke:#000000;stroke-width:2.39201498;stroke-linecap:butt;stroke-linejoin:round;stroke-miterlimit:4;stroke-opacity:1;stroke-dasharray:none;stroke-dashoffset:0"
         id="path2995"
         sodipodi:cx="113.38583"
         sodipodi:cy="145.98425"
         sodipodi:rx="56.692913"
         sodipodi:ry="85.039368"
         d="m 170.07875,145.98425 c 0,46.96595 -25.38228,85.03937 -56.69292,85.03937 -31.310628,0 -56.692909,-38.07342 -56.692909,-85.03937 0,-46.965943 25.382281,-85.039365 56.692909,-85.039365 31.31064,0 56.69292,38.073422 56.69292,85.039365 z"
         transform="matrix(0.0921625,0,0,0.06144167,537.08102,554.41386)" />
      <path
         transform="matrix(0.0921625,0,0,0.06144167,926.84479,554.41386)"
         d="m 170.07875,145.98425 c 0,46.96595 -25.38228,85.03937 -56.69292,85.03937 -31.310628,0 -56.692909,-38.07342 -56.692909,-85.03937 0,-46.965943 25.382281,-85.039365 56.692909,-85.039365 31.31064,0 56.69292,38.073422 56.69292,85.039365 z"
         sodipodi:ry="85.039368"
         sodipodi:rx="56.692913"
         sodipodi:cy="145.98425"
         sodipodi:cx="113.38583"
         id="path2997"
         style="fill:none;stroke:#000000;stroke-width:2.39201498;stroke-linecap:butt;stroke-linejoin:round;stroke-miterlimit:4;stroke-opacity:1;stroke-dasharray:none;stroke-dashoffset:0"
         sodipodi:type="arc" />
    </g>
    <rect
       style="fill:none;stroke:#000000;stroke-width:0.18000001;stroke-linecap:butt;stroke-linejoin:round;stroke-miterlimit:4;stroke-opacity:1;stroke-dasharray:none;stroke-dashoffset:0"
       id="rect2999"
       width="442.91339"
       height="442.91339"
       x="496.06299"
       y="1095.5906"
       transform="translate(0,-567.64025)"
       rx="17.716536"
       ry="17.716536" />
  </g>
</svg>
