<?xml version="1.0" encoding="UTF-8" standalone="no"?>
<!-- Created with Inkscape (http://www.inkscape.org/) -->

<svg
   xmlns:dc="http://purl.org/dc/elements/1.1/"
   xmlns:cc="http://creativecommons.org/ns#"
   xmlns:rdf="http://www.w3.org/1999/02/22-rdf-syntax-ns#"
   xmlns:svg="http://www.w3.org/2000/svg"
   xmlns="http://www.w3.org/2000/svg"
   xmlns:sodipodi="http://sodipodi.sourceforge.net/DTD/sodipodi-0.dtd"
   xmlns:inkscape="http://www.inkscape.org/namespaces/inkscape"
   width="2160"
   height="1620"
   id="svg3914"
   version="1.1"
   inkscape:version="0.48.2 r9819"
   sodipodi:docname="vpg_box_front.svg">
  <defs
     id="defs3916" />
  <sodipodi:namedview
     id="base"
     pagecolor="#ffffff"
     bordercolor="#666666"
     borderopacity="1.0"
     inkscape:pageopacity="0.0"
     inkscape:pageshadow="2"
     inkscape:zoom="0.9962963"
     inkscape:cx="635.17348"
     inkscape:cy="1397.2896"
     inkscape:document-units="mm"
     inkscape:current-layer="layer1"
     showgrid="true"
     units="mm"
     inkscape:window-width="1920"
     inkscape:window-height="996"
     inkscape:window-x="-8"
     inkscape:window-y="-8"
     inkscape:window-maximized="1">
    <inkscape:grid
       type="xygrid"
       id="grid3922"
       empspacing="4"
       visible="true"
       enabled="true"
       snapvisiblegridlinesonly="true"
       units="mm"
       spacingx="0.5mm"
       spacingy="0.5mm" />
  </sodipodi:namedview>
  <metadata
     id="metadata3919">
    <rdf:RDF>
      <cc:Work
         rdf:about="">
        <dc:format>image/svg+xml</dc:format>
        <dc:type
           rdf:resource="http://purl.org/dc/dcmitype/StillImage" />
        <dc:title></dc:title>
      </cc:Work>
    </rdf:RDF>
  </metadata>
  <g
     inkscape:label="Layer 1"
     inkscape:groupmode="layer"
     id="layer1"
     transform="translate(0,567.64025)">
    <path
       id="path6938"
       style="fill:none;stroke:#000000;stroke-width:0.18;stroke-miterlimit:4;stroke-opacity:1;stroke-dasharray:none"
       d="m 21.259843,-512.93159 0,-54 m -20.70000008,54 20.70000008,0 m -20.70000008,54 0,-54 m 0,54 20.70000008,0 m 0,54 0,-54 m -20.70000008,54 20.70000008,0 m -20.70000008,54 0,-54 m 0,54 20.70000008,0 m 0,54 0,-54 m 1014.299957,-162 0,-54 m -20.7,54 20.7,0 m -20.7,54 0,-54 m 0,54 20.7,0 m 0,54 0,-54 m -20.7,54 20.7,0 m -20.7,54 0,-54 m 0,54 20.7,0 m 0,54 0,-54 m -980.524977,-216 -33.77498,0 m 33.77498,0 0,20.7 m 54.462497,0 -54.462497,0 m 54.462497,-20.7 0,20.7 m 54.475,-20.7 -54.475,0 m 54.475,0 0,20.7 m 54.475,0 -54.475,0 m 54.475,-20.7 0,20.7 m 54.475,-20.7 -54.475,0 m 54.475,0 0,20.7 m 54.475,0 -54.475,0 m 54.475,-20.7 0,20.7 m 54.475,-20.7 -54.475,0 m 54.475,0 0,20.7 m 54.475,0 -54.475,0 m 54.475,-20.7 0,20.7 m 54.475,-20.7 -54.475,0 m 54.475,0 0,20.7 m 54.475,0 -54.475,0 m 54.475,-20.7 0,20.7 m 54.475,-20.7 -54.475,0 m 54.475,0 0,20.7 m 54.4625,0 -54.4625,0 m 54.4625,-20.7 0,20.7 m 54.475,-20.7 -54.475,0 m 54.475,0 0,20.7 m 54.475,0 -54.475,0 m 54.475,-20.7 0,20.7 m 54.475,-20.7 -54.475,0 m 54.475,0 0,20.7 m 54.475,0 -54.475,0 m 54.475,-20.7 0,20.7 m 54.475,-20.7 -54.475,0 m 54.475,0 0,20.7 m 54.47501,0 -54.47501,0 m 54.47501,-20.7 0,20.7 m 54.47497,-20.7 -54.47497,0 m -926.050007,270 -33.77498,0 m 33.77498,-20.7 0,20.7 m 54.462497,-20.7 -54.462497,0 m 54.462497,0 0,20.7 m 54.475,0 -54.475,0 m 54.475,-20.7 0,20.7 m 54.475,-20.7 -54.475,0 m 54.475,0 0,20.7 m 54.475,0 -54.475,0 m 54.475,-20.7 0,20.7 m 54.475,-20.7 -54.475,0 m 54.475,0 0,20.7 m 54.475,0 -54.475,0 m 54.475,-20.7 0,20.7 m 54.475,-20.7 -54.475,0 m 54.475,0 0,20.7 m 54.475,0 -54.475,0 m 54.475,-20.7 0,20.7 m 54.475,-20.7 -54.475,0 m 54.475,0 0,20.7 m 54.475,0 -54.475,0 m 54.475,-20.7 0,20.7 m 54.4625,-20.7 -54.4625,0 m 54.4625,0 0,20.7 m 54.475,0 -54.475,0 m 54.475,-20.7 0,20.7 m 54.475,-20.7 -54.475,0 m 54.475,0 0,20.7 m 54.475,0 -54.475,0 m 54.475,-20.7 0,20.7 m 54.475,-20.7 -54.475,0 m 54.475,0 0,20.7 m 54.475,0 -54.475,0 m 54.475,-20.7 0,20.7 m 54.47501,-20.7 -54.47501,0 m 54.47501,0 0,20.7 m 54.47497,0 -54.47497,0"
       inkscape:connector-curvature="0" />
    <path
       sodipodi:type="arc"
       style="fill:none;stroke:#000000;stroke-width:0.34268024;stroke-miterlimit:4;stroke-opacity:1;stroke-dasharray:none"
       id="path3072"
       sodipodi:cx="127.55905"
       sodipodi:cy="89.291336"
       sodipodi:rx="99.212601"
       sodipodi:ry="85.039368"
       d="m 226.77165,89.291336 a 99.212601,85.039368 0 1 1 -198.425199,0 99.212601,85.039368 0 1 1 198.425199,0 z"
       transform="matrix(0.48630646,0,0,0.56735756,31.524689,-482.59171)" />
    <path
       transform="matrix(0.48630646,0,0,0.56735756,173.25696,-482.59171)"
       d="m 226.77165,89.291336 a 99.212601,85.039368 0 1 1 -198.425199,0 99.212601,85.039368 0 1 1 198.425199,0 z"
       sodipodi:ry="85.039368"
       sodipodi:rx="99.212601"
       sodipodi:cy="89.291336"
       sodipodi:cx="127.55905"
       id="path3082"
       style="fill:none;stroke:#000000;stroke-width:0.34268024;stroke-miterlimit:4;stroke-opacity:1;stroke-dasharray:none"
       sodipodi:type="arc" />
    <path
       sodipodi:type="arc"
       style="fill:none;stroke:#000000;stroke-width:0.34268024;stroke-miterlimit:4;stroke-opacity:1;stroke-dasharray:none"
       id="path3088"
       sodipodi:cx="127.55905"
       sodipodi:cy="89.291336"
       sodipodi:rx="99.212601"
       sodipodi:ry="85.039368"
       d="m 226.77165,89.291336 a 99.212601,85.039368 0 1 1 -198.425199,0 99.212601,85.039368 0 1 1 198.425199,0 z"
       transform="matrix(0.48630646,0,0,0.56735756,314.98924,-482.59171)" />
    <path
       transform="matrix(0.48630646,0,0,0.56735756,456.72152,-482.59171)"
       d="m 226.77165,89.291336 a 99.212601,85.039368 0 1 1 -198.425199,0 99.212601,85.039368 0 1 1 198.425199,0 z"
       sodipodi:ry="85.039368"
       sodipodi:rx="99.212601"
       sodipodi:cy="89.291336"
       sodipodi:cx="127.55905"
       id="path3094"
       style="fill:none;stroke:#000000;stroke-width:0.34268024;stroke-miterlimit:4;stroke-opacity:1;stroke-dasharray:none"
       sodipodi:type="arc" />
    <path
       sodipodi:type="arc"
       style="fill:none;stroke:#000000;stroke-width:0.34268024;stroke-miterlimit:4;stroke-opacity:1;stroke-dasharray:none"
       id="path3100"
       sodipodi:cx="127.55905"
       sodipodi:cy="89.291336"
       sodipodi:rx="99.212601"
       sodipodi:ry="85.039368"
       d="m 226.77165,89.291336 a 99.212601,85.039368 0 1 1 -198.425199,0 99.212601,85.039368 0 1 1 198.425199,0 z"
       transform="matrix(0.48630646,0,0,0.56735756,598.4538,-482.59171)" />
    <rect
       style="fill:none;stroke:#000000;stroke-width:0.18;stroke-miterlimit:4;stroke-opacity:1;stroke-dasharray:none"
       id="rect3106"
       width="263.0704"
       height="158.54285"
       x="737.88965"
       y="-511.20303" />
  </g>
</svg>
