<?xml version="1.0" encoding="UTF-8" standalone="no"?>
<!-- Created with Inkscape (http://www.inkscape.org/) -->

<svg
   xmlns:dc="http://purl.org/dc/elements/1.1/"
   xmlns:cc="http://creativecommons.org/ns#"
   xmlns:rdf="http://www.w3.org/1999/02/22-rdf-syntax-ns#"
   xmlns:svg="http://www.w3.org/2000/svg"
   xmlns="http://www.w3.org/2000/svg"
   xmlns:sodipodi="http://sodipodi.sourceforge.net/DTD/sodipodi-0.dtd"
   xmlns:inkscape="http://www.inkscape.org/namespaces/inkscape"
   width="2160"
   height="1620"
   id="svg2"
   version="1.1"
   inkscape:version="0.48.2 r9819"
   sodipodi:docname="New document 5">
  <defs
     id="defs4" />
  <sodipodi:namedview
     id="base"
     pagecolor="#ffffff"
     bordercolor="#666666"
     borderopacity="1.0"
     inkscape:pageopacity="0.0"
     inkscape:pageshadow="2"
     inkscape:zoom="0.35355339"
     inkscape:cx="670.59762"
     inkscape:cy="1346.6413"
     inkscape:document-units="mm"
     inkscape:current-layer="layer1"
     showgrid="true"
     units="mm"
     inkscape:window-width="1440"
     inkscape:window-height="853"
     inkscape:window-x="-4"
     inkscape:window-y="-4"
     inkscape:window-maximized="1">
    <inkscape:grid
       type="xygrid"
       id="grid2985"
       empspacing="4"
       visible="true"
       enabled="true"
       snapvisiblegridlinesonly="true"
       spacingx="0.25mm"
       spacingy="0.25mm"
       units="mm" />
  </sodipodi:namedview>
  <metadata
     id="metadata7">
    <rdf:RDF>
      <cc:Work
         rdf:about="">
        <dc:format>image/svg+xml</dc:format>
        <dc:type
           rdf:resource="http://purl.org/dc/dcmitype/StillImage" />
        <dc:title></dc:title>
      </cc:Work>
    </rdf:RDF>
  </metadata>
  <g
     inkscape:label="Layer 1"
     inkscape:groupmode="layer"
     id="layer1"
     transform="translate(0,567.638)">
    <path
       d="M 592.83273,133.50039 C 592.83273,131.0762 590.85839,129.12685 588.43421,129.12685 C 586.01004,129.12685 584.06069,131.07619 584.06069,133.50039 C 584.06069,135.92456 586.01004,137.89889 588.43421,137.89889 C 590.85839,137.89889 592.83273,135.92455 592.83273,133.50039 z"
       style="fill:none;stroke:#000000;stroke-width:0.05997969;stroke-linecap:round;stroke-linejoin:round;stroke-miterlimit:10;stroke-opacity:1;stroke-dasharray:none;display:inline"
       id="path43348"
       inkscape:connector-curvature="0" />
    <path
       d="M 592.83273,34.062763 C 592.83273,31.638575 590.85839,29.689237 588.43421,29.689237 C 586.01004,29.689237 584.06069,31.638562 584.06069,34.062763 C 584.06069,36.486938 586.01004,38.461275 588.43421,38.461275 C 590.85839,38.461275 592.83273,36.486925 592.83273,34.062763 z"
       style="fill:none;stroke:#000000;stroke-width:0.05997969;stroke-linecap:round;stroke-linejoin:round;stroke-miterlimit:10;stroke-opacity:1;stroke-dasharray:none;display:inline"
       id="path43350"
       inkscape:connector-curvature="0" />
    <path
       inkscape:connector-curvature="0"
       id="path43352"
       style="fill:none;stroke:#000000;stroke-width:0.05997969;stroke-linecap:round;stroke-linejoin:round;stroke-miterlimit:10;stroke-opacity:1;stroke-dasharray:none;display:inline"
       d="M 412.43222,-19.187987 C 412.43222,-21.612175 410.45788,-23.561512 408.0337,-23.561512 C 405.60953,-23.561512 403.66018,-21.612175 403.66018,-19.187987 C 403.66018,-16.763812 405.60953,-14.789475 408.0337,-14.789475 C 410.45788,-14.789475 412.43222,-16.763812 412.43222,-19.187987 z" />
    <path
       inkscape:connector-curvature="0"
       id="path43354"
       style="fill:none;stroke:#000000;stroke-width:0.05997969;stroke-linecap:round;stroke-linejoin:round;stroke-miterlimit:10;stroke-opacity:1;stroke-dasharray:none;display:inline"
       d="M 408.15766,151.28686 C 408.15766,148.86267 406.18333,146.91333 403.75915,146.91333 C 401.33498,146.91333 399.38563,148.86266 399.38563,151.28686 C 399.38563,153.71104 401.33498,155.68536 403.75915,155.68536 C 406.18333,155.68536 408.15766,153.71103 408.15766,151.28686 z" />
    <g
       id="g3447"
       transform="translate(41.39966,-10.627674)">
      <path
         inkscape:connector-curvature="0"
         id="path4262"
         style="fill:none;stroke:#000000;stroke-width:0.18000001;stroke-linecap:butt;stroke-linejoin:miter;stroke-miterlimit:4;stroke-opacity:1;stroke-dasharray:none"
         d="M 202.37991,276.25152 L 202.37991,269.02942 L 192.63583,269.02942 L 192.63583,278.77352 L 199.88919,278.77352 M 199.85789,294.7184 L 192.6358,294.7184 L 192.63579,304.4625 L 202.37988,304.46251 L 202.37988,297.20915 M 205.51177,279.3999 A 0.88582719,0.88582719 0 0 0 206.13814,279.65935 M 206.13814,293.83257 A 0.88582719,0.88582719 0 0 0 205.51176,294.09202 M 215.1929,294.09202 A 0.88582719,0.88582719 0 0 0 214.56652,293.83258 M 217.69839,281.90539 A 0.88582719,0.88582719 0 0 0 217.43894,282.53176 M 217.43894,290.96016 A 0.88582719,0.88582719 0 0 0 217.6984,291.58653 M 214.56652,279.65935 A 0.88582719,0.88582719 0 0 0 215.1929,279.39989 M 203.26572,282.53177 A 0.88582719,0.88582719 0 0 0 203.00627,281.90539 M 203.00627,291.58654 A 0.88582719,0.88582719 0 0 0 203.26572,290.96016 M 203.26572,282.53178 L 203.26572,290.96016 M 214.56652,279.65936 L 206.13814,279.65935 M 215.1929,279.3999 L 218.34004,276.25277 M 220.80665,278.79715 L 217.69841,281.90537 M 217.69842,291.58652 L 220.83012,294.71823 M 218.33241,297.23149 L 215.19295,294.09203 M 205.51181,294.09203 L 202.37235,297.2315 M 199.87457,294.7183 L 203.00628,291.58659 M 203.00628,281.90544 L 199.89806,278.79721 M 202.36466,276.25283 L 205.51179,279.39997 M 217.43896,290.96023 L 217.43896,282.53184 M 206.13816,293.83265 L 214.56653,293.83265 M 220.81557,278.77359 L 228.06891,278.77359 L 228.06892,269.0295 L 218.32483,269.02949 L 218.32483,276.25159 M 218.32483,297.20921 L 218.32483,304.46257 L 228.06892,304.46257 L 228.06892,294.71847 L 220.84683,294.71847" />
      <path
         d="M 733.87596,276.25152 L 733.87596,269.02942 L 724.13188,269.02942 L 724.13188,278.77352 L 731.38524,278.77352 M 731.35394,294.7184 L 724.13185,294.7184 L 724.13184,304.4625 L 733.87593,304.46251 L 733.87593,297.20915 M 737.00782,279.3999 A 0.88582719,0.88582719 0 0 0 737.63419,279.65935 M 737.63419,293.83257 A 0.88582719,0.88582719 0 0 0 737.00781,294.09202 M 746.68895,294.09202 A 0.88582719,0.88582719 0 0 0 746.06257,293.83258 M 749.19444,281.90539 A 0.88582719,0.88582719 0 0 0 748.93499,282.53176 M 748.93499,290.96016 A 0.88582719,0.88582719 0 0 0 749.19445,291.58653 M 746.06257,279.65935 A 0.88582719,0.88582719 0 0 0 746.68895,279.39989 M 734.76177,282.53177 A 0.88582719,0.88582719 0 0 0 734.50232,281.90539 M 734.50232,291.58654 A 0.88582719,0.88582719 0 0 0 734.76177,290.96016 M 734.76177,282.53178 L 734.76177,290.96016 M 746.06257,279.65936 L 737.63419,279.65935 M 746.68895,279.3999 L 749.83609,276.25277 M 752.3027,278.79715 L 749.19446,281.90537 M 749.19447,291.58652 L 752.32617,294.71823 M 749.82846,297.23149 L 746.689,294.09203 M 737.00786,294.09203 L 733.8684,297.2315 M 731.37062,294.7183 L 734.50233,291.58659 M 734.50233,281.90544 L 731.39411,278.79721 M 733.86071,276.25283 L 737.00784,279.39997 M 748.93501,290.96023 L 748.93501,282.53184 M 737.63421,293.83265 L 746.06258,293.83265 M 752.31162,278.77359 L 759.56496,278.77359 L 759.56497,269.0295 L 749.82088,269.02949 L 749.82088,276.25159 M 749.82088,297.20921 L 749.82088,304.46257 L 759.56497,304.46257 L 759.56497,294.71847 L 752.34288,294.71847"
         style="fill:none;stroke:#000000;stroke-width:0.18000001;stroke-linecap:butt;stroke-linejoin:miter;stroke-miterlimit:4;stroke-opacity:1;stroke-dasharray:none"
         id="path3445"
         inkscape:connector-curvature="0" />
    </g>
  </g>
</svg>
