<?xml version="1.0" encoding="UTF-8" standalone="no"?>
<!-- Created with Inkscape (http://www.inkscape.org/) -->

<svg
   xmlns:dc="http://purl.org/dc/elements/1.1/"
   xmlns:cc="http://creativecommons.org/ns#"
   xmlns:rdf="http://www.w3.org/1999/02/22-rdf-syntax-ns#"
   xmlns:svg="http://www.w3.org/2000/svg"
   xmlns="http://www.w3.org/2000/svg"
   xmlns:sodipodi="http://sodipodi.sourceforge.net/DTD/sodipodi-0.dtd"
   xmlns:inkscape="http://www.inkscape.org/namespaces/inkscape"
   width="2160"
   height="1620"
   id="svg3914"
   version="1.1"
   inkscape:version="0.48.2 r9819"
   sodipodi:docname="VPG_tiles.svg">
  <sodipodi:namedview
     id="base"
     pagecolor="#ffffff"
     bordercolor="#666666"
     borderopacity="1.0"
     inkscape:pageopacity="0.0"
     inkscape:pageshadow="2"
     inkscape:zoom="0.50000001"
     inkscape:cx="-115.42458"
     inkscape:cy="1457.61"
     inkscape:document-units="mm"
     inkscape:current-layer="layer1"
     showgrid="false"
     units="mm"
     inkscape:window-width="1920"
     inkscape:window-height="996"
     inkscape:window-x="-8"
     inkscape:window-y="-8"
     inkscape:window-maximized="1"
     inkscape:snap-grids="true"
     inkscape:object-nodes="true">
    <inkscape:grid
       spacingy="0.5mm"
       spacingx="0.5mm"
       units="mm"
       snapvisiblegridlinesonly="true"
       enabled="true"
       visible="true"
       empspacing="4"
       id="grid3922"
       type="xygrid" />
  </sodipodi:namedview>
  <defs
     id="defs3916" />
  <metadata
     id="metadata3919">
    <rdf:RDF>
      <cc:Work
         rdf:about="">
        <dc:format>image/svg+xml</dc:format>
        <dc:type
           rdf:resource="http://purl.org/dc/dcmitype/StillImage" />
        <dc:title />
      </cc:Work>
    </rdf:RDF>
  </metadata>
  <g
     transform="translate(0,567.64025)"
     id="layer1"
     inkscape:groupmode="layer"
     inkscape:label="Layer 1">
    <g
       id="g3869"
       transform="translate(-134,-111)">
      <path
         inkscape:connector-curvature="0"
         id="path3965"
         d="m 141.73228,-450.00245 0,88.4375 88.4375,0 0,-35.5 11.43749,0 c 3.05085,5.19856 8.693,8.6875 15.15625,8.6875 9.70242,0 17.5625,-7.86008 17.5625,-17.5625 0,-9.70242 -7.86008,-17.5625 -17.5625,-17.5625 -6.4754,0 -12.1407,3.504 -15.1875,8.71875 l -11.40624,0 0,-35.21875 -88.4375,0 z"
         style="fill:none;stroke:#00ff00;stroke-width:0.13931963;stroke-miterlimit:10;stroke-opacity:1" />
      <path
         style="font-size:20.51441383px;font-style:normal;font-variant:normal;font-weight:bold;font-stretch:normal;line-height:125%;letter-spacing:0px;word-spacing:0px;fill:none;stroke:#0000ff;stroke-width:0.18000001;stroke-miterlimit:4;stroke-opacity:1;stroke-dasharray:none;font-family:Arial;-inkscape-font-specification:Arial Bold"
         d="m 187.17054,-403.29774 -2.0234,-5.44914 -1.98333,5.44914 z"
         id="path4053"
         inkscape:connector-curvature="0" />
      <path
         style="font-size:20.51441383px;font-style:normal;font-variant:normal;font-weight:bold;font-stretch:normal;line-height:125%;letter-spacing:0px;word-spacing:0px;fill:none;stroke:#0000ff;stroke-width:0.18000001;stroke-miterlimit:4;stroke-opacity:1;stroke-dasharray:none;font-family:Arial;-inkscape-font-specification:Arial Bold"
         d="m 223.22833,-411.3164 0,-31.59944 -74.40944,0 -1e-5,35.43307 4.1042,-0.84344 c 0,-0.74791 0.21202,-1.44742 0.63607,-2.09852 0.42404,-0.65108 1.03507,-1.14691 1.83308,-1.4875 0.798,-0.34055 1.76128,-0.51084 2.88984,-0.51085 1.84309,1e-5 3.23041,0.40402 4.16199,1.21203 0.93155,0.80803 1.4207,1.88651 1.46746,3.23543 l 1.88316,-1.71284 0,-2.48416 11.66957,0 0,2.48416 6.15032,-2.48416 3.13526,0 5.87986,14.68463 1.59267,0 0,-14.68463 6.24047,0 c 1.56929,10e-6 2.70954,0.1319 3.42074,0.39566 0.71118,0.26379 1.28047,0.73291 1.70787,1.40736 0.42737,0.67448 0.64106,1.44577 0.64107,2.31388 -1e-5,1.10186 -0.32389,2.01172 -0.97163,2.72958 -0.64776,0.71788 -1.61605,1.1703 -2.90487,1.35728 0.64106,0.37396 1.17028,0.78465 1.58766,1.23206 0.41736,0.44743 2.49597,2.3786 3.20383,3.52051 l 1.12337,1.72642 4.07189,0.002 0,-12.20047 -4.35731,0 0,-2.48416 11.66958,0 z"
         id="path4055"
         inkscape:connector-curvature="0"
         sodipodi:nodetypes="cccccscccccccccccccscccscccccccccc" />
      <path
         style="font-size:20.51441383px;font-style:normal;font-variant:normal;font-weight:bold;font-stretch:normal;line-height:125%;letter-spacing:0px;word-spacing:0px;fill:none;stroke:#0000ff;stroke-width:0.18000001;stroke-miterlimit:4;stroke-opacity:1;stroke-dasharray:none;font-family:Arial;-inkscape-font-specification:Arial Bold"
         d="m 219.65503,-412.17262 0,2.48416 -4.34729,0 0,12.20047 -2.96498,0 -4.07189,-0.002 -4.39231,0.002 -2.14359,-3.19536 c -0.76129,-1.14191 -1.28216,-1.86145 -1.56263,-2.15862 -0.28047,-0.29716 -0.57764,-0.50084 -0.89149,-0.61103 -0.31387,-0.11018 -0.81137,-0.16527 -1.4925,-0.16527 l -0.60101,0 0,6.13028 -2.96498,0 -1.59267,0 -3.22541,0 -1.28215,-3.3356 -5.86984,0 -1.21204,3.3356 -3.14527,0 5.71959,-14.68463 -6.15032,2.48416 -4.34729,0 0,12.20047 -2.96497,0 0,-12.20047 -4.35731,0 -1.88316,1.71284 -2.96498,0.13025 c -0.12689,-0.75458 -0.39901,-1.29716 -0.81637,-1.62773 -0.41737,-0.33054 -1.04342,-0.49582 -1.87815,-0.49583 -0.86145,10e-6 -1.53591,0.17698 -2.02339,0.53089 -0.31387,0.22706 -0.4708,0.5309 -0.47079,0.91153 -10e-6,0.34726 0.14691,0.64443 0.44074,0.8915 0.37395,0.31387 1.28214,0.64108 2.72457,0.98164 1.44241,0.34058 2.5092,0.69284 3.20037,1.05678 0.69115,0.36395 1.23205,0.86145 1.62272,1.4925 0.39064,0.63107 0.58597,1.41071 0.58598,2.33892 -1e-5,0.84142 -0.23374,1.62941 -0.70117,2.36397 -0.46747,0.73457 -1.12857,1.28048 -1.98333,1.63775 -0.85478,0.35726 -1.9199,0.5359 -3.19536,0.5359 -1.85645,0 -3.28218,-0.42906 -4.27718,-1.28716 -0.995,-0.85811 -1.58933,-2.10854 -1.78299,-3.7513 l 2.88484,-0.28047 c 0.17362,0.9683 0.52588,1.67949 1.05678,2.13358 0.53088,0.4541 1.24708,0.68115 2.1486,0.68115 0.95493,0 1.67447,-0.20201 2.15862,-0.60602 0.48414,-0.40401 0.72621,-0.87647 0.72622,-1.41738 -1e-5,-0.34724 -0.10185,-0.64274 -0.30551,-0.88649 -0.20369,-0.24373 -0.55928,-0.45576 -1.06679,-0.63606 -0.34726,-0.1202 -1.13859,-0.33389 -2.37399,-0.64108 -1.58933,-0.39399 -2.70454,-0.87813 -3.34561,-1.45244 -0.90151,-0.80801 -1.35227,-1.79303 -1.35227,-2.95499 l -4.1042,0.84344 1e-5,40.74803 74.40944,0 0,-44.58166 z"
         id="path4057"
         inkscape:connector-curvature="0"
         sodipodi:nodetypes="ccccccccccscccccccccccccccccccccccccccccsscccssccccccccccc" />
      <path
         style="font-size:20.51441383px;font-style:normal;font-variant:normal;font-weight:bold;font-stretch:normal;line-height:125%;letter-spacing:0px;word-spacing:0px;fill:none;stroke:#0000ff;stroke-width:0.18000001;stroke-miterlimit:4;stroke-opacity:1;stroke-dasharray:none;font-family:Arial;-inkscape-font-specification:Arial Bold"
         d="m 197.18734,-405.96221 2.19368,0 c 1.42238,1e-5 2.31053,-0.0601 2.66447,-0.1803 0.35391,-0.12019 0.63105,-0.32721 0.83139,-0.62104 0.20033,-0.29382 0.3005,-0.6611 0.30051,-1.10185 -1e-5,-0.49415 -0.1319,-0.89315 -0.39567,-1.19701 -0.26378,-0.30383 -0.63607,-0.49582 -1.11687,-0.57596 -0.24041,-0.0334 -0.96162,-0.0501 -2.16363,-0.0501 l -2.31388,0 z"
         id="path4059"
         inkscape:connector-curvature="0" />
    </g>
    <g
       id="g3876"
       transform="translate(558.19093,-10.22421)">
      <path
         style="fill:none;stroke:#00ff00;stroke-width:0.18000001;stroke-miterlimit:10;stroke-opacity:1;stroke-dasharray:none"
         d="m 322.44094,-550.7579 0,35.21875 11.40625,0 c 3.0468,-5.21475 8.7121,-8.71875 15.1875,-8.71875 9.70242,0 17.5625,7.86008 17.5625,17.5625 0,9.70242 -7.86008,17.5625 -17.5625,17.5625 -6.46325,0 -12.1054,-3.48894 -15.15625,-8.6875 l -11.4375,0 0,35.5 0,0.15625 132.87499,0 0,-0.15625 0,-35.5 11.4375,0 c 3.05085,5.19856 8.693,8.6875 15.15625,8.6875 9.70242,0 17.5625,-7.86008 17.5625,-17.5625 0,-9.70242 -7.86008,-17.5625 -17.5625,-17.5625 -6.4754,0 -12.1407,3.504 -15.1875,8.71875 l -11.40625,0 0,-35.21875 -88.43749,0 -44.4375,0 z"
         id="path3897"
         inkscape:connector-curvature="0" />
      <path
         inkscape:transform-center-y="23.408776"
         inkscape:transform-center-x="-5.291573"
         sodipodi:nodetypes="ccccc"
         inkscape:connector-curvature="0"
         id="path3923"
         d="m 411.02362,-478.81146 c 3.6317,-2e-5 7.22785,-0.71531 10.58314,-2.10512 l -2.64578,-6.38749 c -2.51647,1.04235 -5.21357,1.57884 -7.93735,1.57885 z"
         style="fill:none;stroke:#0000ff;stroke-width:0.09;stroke-miterlimit:4;stroke-opacity:1;stroke-dasharray:none" />
      <path
         style="fill:none;stroke:#0000ff;stroke-width:0.09;stroke-miterlimit:4;stroke-opacity:1;stroke-dasharray:none"
         d="m 421.60676,-480.91658 c 3.35525,-1.38981 6.40393,-3.42684 8.97195,-5.99487 l -4.88877,-4.88877 c -1.92602,1.92601 -4.21251,3.4538 -6.72895,4.49616 z"
         id="path3925"
         inkscape:connector-curvature="0"
         sodipodi:nodetypes="ccccc"
         inkscape:transform-center-x="-13.746233"
         inkscape:transform-center-y="20.108141" />
      <path
         inkscape:transform-center-y="13.746221"
         inkscape:transform-center-x="-20.108153"
         sodipodi:nodetypes="ccccc"
         inkscape:connector-curvature="0"
         id="path3927"
         d="m 430.57871,-486.91145 c 2.56799,-2.56801 4.60507,-5.61666 5.99487,-8.97195 l -6.38749,-2.64579 c -1.04236,2.51646 -2.57014,4.80296 -4.49613,6.72897 z"
         style="fill:none;stroke:#0000ff;stroke-width:0.09;stroke-miterlimit:4;stroke-opacity:1;stroke-dasharray:none" />
      <path
         style="fill:none;stroke:#0000ff;stroke-width:0.09;stroke-miterlimit:4;stroke-opacity:1;stroke-dasharray:none"
         d="m 436.57358,-495.8834 c 1.38978,-3.35526 2.10512,-6.9514 2.10512,-10.58314 l -6.91377,-10e-6 c -10e-6,2.7238 -0.53649,5.42091 -1.57882,7.93736 z"
         id="path3929"
         inkscape:connector-curvature="0"
         sodipodi:nodetypes="ccccc"
         inkscape:transform-center-x="-23.408788"
         inkscape:transform-center-y="5.291566" />
      <path
         transform="matrix(0.75,0,0,0.75,247.58858,-549.51772)"
         d="m 232.08662,57.401573 c 0,7.827658 -6.34557,14.173228 -14.17323,14.173228 -7.82766,0 -14.17323,-6.34557 -14.17323,-14.173228 0,-7.827658 6.34557,-14.173228 14.17323,-14.173228 7.82766,0 14.17323,6.34557 14.17323,14.173228 z"
         sodipodi:ry="14.173228"
         sodipodi:rx="14.173228"
         sodipodi:cy="57.401573"
         sodipodi:cx="217.91339"
         id="path3057"
         style="fill:none;stroke:#0000ff;stroke-width:0.12;stroke-miterlimit:4;stroke-opacity:1;stroke-dasharray:none"
         sodipodi:type="arc" />
    </g>
    <g
       id="g3916"
       transform="translate(191.24797,-116.49863)">
      <path
         style="fill:none;stroke:#00ff00;stroke-width:0.18000001;stroke-miterlimit:10;stroke-opacity:1;stroke-dasharray:none"
         d="m 322.44094,-444.48348 0,35.21875 11.40625,0 c 3.0468,-5.21475 8.7121,-8.71875 15.1875,-8.71875 9.70242,0 17.5625,7.86008 17.5625,17.5625 0,9.70242 -7.86008,17.5625 -17.5625,17.5625 -6.46325,0 -12.1054,-3.48894 -15.15625,-8.6875 l -11.4375,0 0,35.5 0,0.15625 132.87499,0 0,-0.15625 0,-35.5 11.4375,0 c 3.05085,5.19856 8.693,8.6875 15.15625,8.6875 9.70242,0 17.5625,-7.86008 17.5625,-17.5625 0,-9.70242 -7.86008,-17.5625 -17.5625,-17.5625 -6.4754,0 -12.1407,3.504 -15.1875,8.71875 l -11.40625,0 0,-35.21875 -88.43749,0 -44.4375,0 z"
         id="path3970"
         inkscape:connector-curvature="0" />
      <path
         style="fill:none;stroke:#0000ff;stroke-width:0.09;stroke-miterlimit:4;stroke-opacity:1;stroke-dasharray:none"
         d="m 438.6787,-400.19212 c 0,-3.63172 -0.71532,-7.22787 -2.10512,-10.58314 l -6.38749,2.64579 c 1.04234,2.51645 1.57884,5.21356 1.57884,7.93735 z"
         id="path3974"
         inkscape:connector-curvature="0"
         sodipodi:nodetypes="ccccc"
         inkscape:transform-center-x="-23.408778"
         inkscape:transform-center-y="-5.2915686" />
      <path
         inkscape:transform-center-y="-13.746224"
         inkscape:transform-center-x="-20.108143"
         sodipodi:nodetypes="ccccc"
         inkscape:connector-curvature="0"
         id="path3976"
         d="m 436.57358,-410.77526 c -1.3898,-3.35527 -3.42685,-6.40394 -5.99487,-8.97195 l -4.88877,4.88877 c 1.926,1.92601 3.4538,4.21251 4.49615,6.72896 z"
         style="fill:none;stroke:#0000ff;stroke-width:0.09;stroke-miterlimit:4;stroke-opacity:1;stroke-dasharray:none" />
      <path
         inkscape:transform-center-y="13.746221"
         inkscape:transform-center-x="-20.108153"
         sodipodi:nodetypes="ccccc"
         inkscape:connector-curvature="0"
         id="path4000"
         d="m 430.57871,-380.63703 c 2.56799,-2.56801 4.60507,-5.61666 5.99487,-8.97195 l -6.38749,-2.64579 c -1.04236,2.51646 -2.57014,4.80296 -4.49613,6.72897 z"
         style="fill:none;stroke:#0000ff;stroke-width:0.09;stroke-miterlimit:4;stroke-opacity:1;stroke-dasharray:none" />
      <path
         style="fill:none;stroke:#0000ff;stroke-width:0.09;stroke-miterlimit:4;stroke-opacity:1;stroke-dasharray:none"
         d="m 436.57358,-389.60898 c 1.38978,-3.35526 2.10512,-6.9514 2.10512,-10.58314 l -6.91377,-1e-5 c -10e-6,2.7238 -0.53649,5.42091 -1.57882,7.93736 z"
         id="path4002"
         inkscape:connector-curvature="0"
         sodipodi:nodetypes="ccccc"
         inkscape:transform-center-x="-23.408788"
         inkscape:transform-center-y="5.291566" />
      <path
         sodipodi:type="arc"
         style="fill:none;stroke:#0000ff;stroke-width:0.12;stroke-miterlimit:4;stroke-opacity:1;stroke-dasharray:none"
         id="path3061"
         sodipodi:cx="217.91339"
         sodipodi:cy="57.401573"
         sodipodi:rx="14.173228"
         sodipodi:ry="14.173228"
         d="m 232.08662,57.401573 c 0,7.827658 -6.34557,14.173228 -14.17323,14.173228 -7.82766,0 -14.17323,-6.34557 -14.17323,-14.173228 0,-7.827658 6.34557,-14.173228 14.17323,-14.173228 7.82766,0 14.17323,6.34557 14.17323,14.173228 z"
         transform="matrix(0.75,0,0,0.75,247.58858,-443.2433)" />
    </g>
    <g
       id="g3900"
       transform="translate(543.05788,-222.7731)">
      <path
         inkscape:connector-curvature="0"
         id="path4078"
         d="m 521.04543,-338.20901 0,35.21875 11.40625,0 c 3.0468,-5.21475 8.7121,-8.71875 15.1875,-8.71875 9.70242,0 17.5625,7.86008 17.5625,17.5625 0,9.70242 -7.86008,17.5625 -17.5625,17.5625 -6.46325,0 -12.1054,-3.48894 -15.15625,-8.6875 l -11.4375,0 0,35.5 0,0.15625 132.87499,0 0,-0.15625 0,-35.5 11.4375,0 c 3.05085,5.19856 8.693,8.6875 15.15625,8.6875 9.70242,0 17.5625,-7.86008 17.5625,-17.5625 0,-9.70242 -7.86008,-17.5625 -17.5625,-17.5625 -6.4754,0 -12.1407,3.504 -15.1875,8.71875 l -11.40625,0 0,-35.21875 -88.43749,0 -44.4375,0 z"
         style="fill:none;stroke:#00ff00;stroke-width:0.18000001;stroke-miterlimit:10;stroke-opacity:1;stroke-dasharray:none" />
      <path
         style="fill:none;stroke:#0000ff;stroke-width:0.09;stroke-miterlimit:4;stroke-opacity:1;stroke-dasharray:none"
         d="m 590.07302,-274.36256 c 2.56801,2.568 5.61666,4.60507 8.97195,5.99487 l 2.64578,-6.38749 c -2.51646,-1.04235 -4.80295,-2.57014 -6.72896,-4.49613 z"
         id="path4100"
         inkscape:connector-curvature="0"
         sodipodi:nodetypes="ccccc"
         inkscape:transform-center-x="13.746222"
         inkscape:transform-center-y="20.108151" />
      <path
         inkscape:transform-center-y="23.408786"
         inkscape:transform-center-x="5.291567"
         sodipodi:nodetypes="ccccc"
         inkscape:connector-curvature="0"
         id="path4102"
         d="m 599.04497,-268.36769 c 3.35526,1.38978 6.9514,2.10512 10.58314,2.10512 l 0,-6.91377 c -2.7238,0 -5.4209,-0.53649 -7.93735,-1.57882 z"
         style="fill:none;stroke:#0000ff;stroke-width:0.09;stroke-miterlimit:4;stroke-opacity:1;stroke-dasharray:none" />
      <path
         style="fill:none;stroke:#0000ff;stroke-width:0.09;stroke-miterlimit:4;stroke-opacity:1;stroke-dasharray:none"
         d="m 609.62811,-266.26257 c 3.6317,-2e-5 7.22785,-0.71531 10.58314,-2.10512 l -2.64578,-6.38749 c -2.51647,1.04235 -5.21357,1.57884 -7.93735,1.57885 z"
         id="path4104"
         inkscape:connector-curvature="0"
         sodipodi:nodetypes="ccccc"
         inkscape:transform-center-x="-5.291573"
         inkscape:transform-center-y="23.408776" />
      <path
         inkscape:transform-center-y="20.108141"
         inkscape:transform-center-x="-13.746233"
         sodipodi:nodetypes="ccccc"
         inkscape:connector-curvature="0"
         id="path4106"
         d="m 620.21125,-268.36769 c 3.35525,-1.38981 6.40393,-3.42684 8.97195,-5.99487 l -4.88877,-4.88877 c -1.92602,1.92601 -4.21251,3.4538 -6.72895,4.49616 z"
         style="fill:none;stroke:#0000ff;stroke-width:0.09;stroke-miterlimit:4;stroke-opacity:1;stroke-dasharray:none" />
      <path
         sodipodi:type="arc"
         style="fill:none;stroke:#0000ff;stroke-width:0.12;stroke-miterlimit:4;stroke-opacity:1;stroke-dasharray:none"
         id="path3067"
         sodipodi:cx="217.91339"
         sodipodi:cy="57.401573"
         sodipodi:rx="14.173228"
         sodipodi:ry="14.173228"
         d="m 232.08662,57.401573 c 0,7.827658 -6.34557,14.173228 -14.17323,14.173228 -7.82766,0 -14.17323,-6.34557 -14.17323,-14.173228 0,-7.827658 6.34557,-14.173228 14.17323,-14.173228 7.82766,0 14.17323,6.34557 14.17323,14.173228 z"
         transform="matrix(0.75,0,0,0.75,446.19306,-336.96883)" />
    </g>
    <g
       id="g3892"
       transform="translate(176.11494,-116.49863)">
      <path
         style="fill:none;stroke:#00ff00;stroke-width:0.18000001;stroke-miterlimit:10;stroke-opacity:1;stroke-dasharray:none"
         d="m 521.04543,-444.48348 0,35.21875 11.40625,0 c 3.0468,-5.21475 8.7121,-8.71875 15.1875,-8.71875 9.70242,0 17.5625,7.86008 17.5625,17.5625 0,9.70242 -7.86008,17.5625 -17.5625,17.5625 -6.46325,0 -12.1054,-3.48894 -15.15625,-8.6875 l -11.4375,0 0,35.5 0,0.15625 132.87499,0 0,-0.15625 0,-35.5 11.4375,0 c 3.05085,5.19856 8.693,8.6875 15.15625,8.6875 9.70242,0 17.5625,-7.86008 17.5625,-17.5625 0,-9.70242 -7.86008,-17.5625 -17.5625,-17.5625 -6.4754,0 -12.1407,3.504 -15.1875,8.71875 l -11.40625,0 0,-35.21875 -88.43749,0 -44.4375,0 z"
         id="path4006"
         inkscape:connector-curvature="0" />
      <path
         inkscape:transform-center-y="-13.746224"
         inkscape:transform-center-x="20.108147"
         sodipodi:nodetypes="ccccc"
         inkscape:connector-curvature="0"
         id="path4020"
         d="m 590.07302,-419.74721 c -2.56801,2.56801 -4.60507,5.61667 -5.99487,8.97195 l 6.38749,2.64578 c 1.04234,-2.51645 2.57014,-4.80295 4.49613,-6.72896 z"
         style="fill:none;stroke:#0000ff;stroke-width:0.09;stroke-miterlimit:4;stroke-opacity:1;stroke-dasharray:none" />
      <path
         style="fill:none;stroke:#0000ff;stroke-width:0.09;stroke-miterlimit:4;stroke-opacity:1;stroke-dasharray:none"
         d="m 584.07815,-410.77526 c -1.38979,3.35527 -2.10512,6.95141 -2.10512,10.58314 l 6.91377,-1e-5 c -10e-6,-2.72378 0.53649,-5.42089 1.57882,-7.93734 z"
         id="path4022"
         inkscape:connector-curvature="0"
         sodipodi:nodetypes="ccccc"
         inkscape:transform-center-x="23.408782"
         inkscape:transform-center-y="-5.291569" />
      <path
         inkscape:transform-center-y="5.291571"
         inkscape:transform-center-x="23.408777"
         sodipodi:nodetypes="ccccc"
         inkscape:connector-curvature="0"
         id="path4024"
         d="m 581.97303,-400.19212 c 10e-6,3.63171 0.71531,7.22786 2.10512,10.58314 l 6.38748,-2.64579 c -1.04235,-2.51645 -1.57883,-5.21356 -1.57884,-7.93734 z"
         style="fill:none;stroke:#0000ff;stroke-width:0.09;stroke-miterlimit:4;stroke-opacity:1;stroke-dasharray:none" />
      <path
         style="fill:none;stroke:#0000ff;stroke-width:0.09;stroke-miterlimit:4;stroke-opacity:1;stroke-dasharray:none"
         d="m 584.07815,-389.60898 c 1.3898,3.35526 3.42684,6.40393 5.99487,8.97195 l 4.88876,-4.88877 c -1.92601,-1.92601 -3.45379,-4.21251 -4.49615,-6.72895 z"
         id="path4026"
         inkscape:connector-curvature="0"
         sodipodi:nodetypes="ccccc"
         inkscape:transform-center-x="20.108142"
         inkscape:transform-center-y="13.746231" />
      <path
         sodipodi:type="arc"
         style="fill:none;stroke:#0000ff;stroke-width:0.12;stroke-miterlimit:4;stroke-opacity:1;stroke-dasharray:none"
         id="path3063"
         sodipodi:cx="217.91339"
         sodipodi:cy="57.401573"
         sodipodi:rx="14.173228"
         sodipodi:ry="14.173228"
         d="m 232.08662,57.401573 c 0,7.827658 -6.34557,14.173228 -14.17323,14.173228 -7.82766,0 -14.17323,-6.34557 -14.17323,-14.173228 0,-7.827658 6.34557,-14.173228 14.17323,-14.173228 7.82766,0 14.17323,6.34557 14.17323,14.173228 z"
         transform="matrix(0.75,0,0,0.75,446.19307,-443.2433)" />
    </g>
    <g
       id="g3908"
       transform="translate(7.7764709,-222.7731)">
      <path
         style="fill:none;stroke:#00ff00;stroke-width:0.18000001;stroke-miterlimit:10;stroke-opacity:1;stroke-dasharray:none"
         d="m 322.44094,-338.20901 0,35.21875 11.40625,0 c 3.0468,-5.21475 8.7121,-8.71875 15.1875,-8.71875 9.70242,0 17.5625,7.86008 17.5625,17.5625 0,9.70242 -7.86008,17.5625 -17.5625,17.5625 -6.46325,0 -12.1054,-3.48894 -15.15625,-8.6875 l -11.4375,0 0,35.5 0,0.15625 132.87499,0 0,-0.15625 0,-35.5 11.4375,0 c 3.05085,5.19856 8.693,8.6875 15.15625,8.6875 9.70242,0 17.5625,-7.86008 17.5625,-17.5625 0,-9.70242 -7.86008,-17.5625 -17.5625,-17.5625 -6.4754,0 -12.1407,3.504 -15.1875,8.71875 l -11.40625,0 0,-35.21875 -88.43749,0 -44.4375,0 z"
         id="path4042"
         inkscape:connector-curvature="0" />
      <path
         style="fill:none;stroke:#0000ff;stroke-width:0.09;stroke-miterlimit:4;stroke-opacity:1;stroke-dasharray:none"
         d="m 421.60676,-319.46761 c -3.35527,-1.3898 -6.95142,-2.10512 -10.58314,-2.10512 l 0,6.91377 c 2.72378,0 5.4209,0.53649 7.93735,1.57883 z"
         id="path4050"
         inkscape:connector-curvature="0"
         sodipodi:nodetypes="ccccc"
         inkscape:transform-center-x="-5.291573"
         inkscape:transform-center-y="-23.408779" />
      <path
         inkscape:transform-center-y="-23.408774"
         inkscape:transform-center-x="5.291567"
         sodipodi:nodetypes="ccccc"
         inkscape:connector-curvature="0"
         id="path4052"
         d="m 411.02362,-321.57273 c -3.63172,0 -7.22787,0.71532 -10.58314,2.10512 l 2.64578,6.38749 c 2.51645,-1.04235 5.21357,-1.57884 7.93735,-1.57885 z"
         style="fill:none;stroke:#0000ff;stroke-width:0.09;stroke-miterlimit:4;stroke-opacity:1;stroke-dasharray:none" />
      <path
         style="fill:none;stroke:#0000ff;stroke-width:0.09;stroke-miterlimit:4;stroke-opacity:1;stroke-dasharray:none"
         d="m 400.44048,-319.46761 c -3.35527,1.3898 -6.40394,3.42685 -8.97195,5.99487 l 4.88877,4.88877 c 1.926,-1.92601 4.21251,-3.4538 6.72895,-4.49616 z"
         id="path4054"
         inkscape:connector-curvature="0"
         sodipodi:nodetypes="ccccc"
         inkscape:transform-center-x="13.746227"
         inkscape:transform-center-y="-20.108139" />
      <path
         style="fill:none;stroke:#0000ff;stroke-width:0.09;stroke-miterlimit:4;stroke-opacity:1;stroke-dasharray:none"
         d="m 430.57871,-313.47274 c -2.56801,-2.56802 -5.61668,-4.60507 -8.97195,-5.99487 l -2.64578,6.38749 c 2.51644,1.04235 4.80295,2.57014 6.72896,4.49614 z"
         id="path4076"
         inkscape:connector-curvature="0"
         sodipodi:nodetypes="ccccc"
         inkscape:transform-center-x="-13.746228"
         inkscape:transform-center-y="-20.108144" />
      <path
         sodipodi:type="arc"
         style="fill:none;stroke:#0000ff;stroke-width:0.12;stroke-miterlimit:4;stroke-opacity:1;stroke-dasharray:none"
         id="path3065"
         sodipodi:cx="217.91339"
         sodipodi:cy="57.401573"
         sodipodi:rx="14.173228"
         sodipodi:ry="14.173228"
         d="m 232.08662,57.401573 c 0,7.827658 -6.34557,14.173228 -14.17323,14.173228 -7.82766,0 -14.17323,-6.34557 -14.17323,-14.173228 0,-7.827658 6.34557,-14.173228 14.17323,-14.173228 7.82766,0 14.17323,6.34557 14.17323,14.173228 z"
         transform="matrix(0.75,0,0,0.75,247.58857,-336.96883)" />
    </g>
    <g
       id="g3884"
       transform="translate(-374.2995,-10.22421)">
      <path
         style="fill:none;stroke:#00ff00;stroke-width:0.18000001;stroke-miterlimit:10;stroke-opacity:1;stroke-dasharray:none"
         d="m 521.04543,-550.7579 0,35.21875 11.40625,0 c 3.0468,-5.21475 8.7121,-8.71875 15.1875,-8.71875 9.70242,0 17.5625,7.86008 17.5625,17.5625 0,9.70242 -7.86008,17.5625 -17.5625,17.5625 -6.46325,0 -12.1054,-3.48894 -15.15625,-8.6875 l -11.4375,0 0,35.5 0,0.15625 132.87499,0 0,-0.15625 0,-35.5 11.4375,0 c 3.05085,5.19856 8.693,8.6875 15.15625,8.6875 9.70242,0 17.5625,-7.86008 17.5625,-17.5625 0,-9.70242 -7.86008,-17.5625 -17.5625,-17.5625 -6.4754,0 -12.1407,3.504 -15.1875,8.71875 l -11.40625,0 0,-35.21875 -88.43749,0 -44.4375,0 z"
         id="path3933"
         inkscape:connector-curvature="0" />
      <path
         style="fill:none;stroke:#0000ff;stroke-width:0.09;stroke-miterlimit:4;stroke-opacity:1;stroke-dasharray:none"
         d="m 637.28319,-506.46654 c 0,-3.63172 -0.71532,-7.22787 -2.10512,-10.58314 l -6.38749,2.64579 c 1.04234,2.51645 1.57884,5.21356 1.57884,7.93735 z"
         id="path3937"
         inkscape:connector-curvature="0"
         sodipodi:nodetypes="ccccc"
         inkscape:transform-center-x="-23.408778"
         inkscape:transform-center-y="-5.2915686" />
      <path
         inkscape:transform-center-y="-13.746224"
         inkscape:transform-center-x="-20.108143"
         sodipodi:nodetypes="ccccc"
         inkscape:connector-curvature="0"
         id="path3939"
         d="m 635.17807,-517.04968 c -1.3898,-3.35527 -3.42685,-6.40394 -5.99487,-8.97195 l -4.88877,4.88877 c 1.926,1.92601 3.4538,4.21251 4.49615,6.72896 z"
         style="fill:none;stroke:#0000ff;stroke-width:0.09;stroke-miterlimit:4;stroke-opacity:1;stroke-dasharray:none" />
      <path
         style="fill:none;stroke:#0000ff;stroke-width:0.09;stroke-miterlimit:4;stroke-opacity:1;stroke-dasharray:none"
         d="m 620.21125,-532.0165 c -3.35527,-1.3898 -6.95142,-2.10512 -10.58314,-2.10512 l 0,6.91377 c 2.72378,0 5.4209,0.53649 7.93735,1.57883 z"
         id="path3941"
         inkscape:connector-curvature="0"
         sodipodi:nodetypes="ccccc"
         inkscape:transform-center-x="-5.291573"
         inkscape:transform-center-y="-23.408779" />
      <path
         style="fill:none;stroke:#0000ff;stroke-width:0.09;stroke-miterlimit:4;stroke-opacity:1;stroke-dasharray:none"
         d="m 629.1832,-526.02163 c -2.56801,-2.56802 -5.61668,-4.60507 -8.97195,-5.99487 l -2.64578,6.38749 c 2.51644,1.04235 4.80295,2.57014 6.72896,4.49614 z"
         id="path3968"
         inkscape:connector-curvature="0"
         sodipodi:nodetypes="ccccc"
         inkscape:transform-center-x="-13.746228"
         inkscape:transform-center-y="-20.108144" />
      <path
         sodipodi:type="arc"
         style="fill:none;stroke:#0000ff;stroke-width:0.12;stroke-miterlimit:4;stroke-opacity:1;stroke-dasharray:none"
         id="path3059"
         sodipodi:cx="217.91339"
         sodipodi:cy="57.401573"
         sodipodi:rx="14.173228"
         sodipodi:ry="14.173228"
         d="m 232.08662,57.401573 c 0,7.827658 -6.34557,14.173228 -14.17323,14.173228 -7.82766,0 -14.17323,-6.34557 -14.17323,-14.173228 0,-7.827658 6.34557,-14.173228 14.17323,-14.173228 7.82766,0 14.17323,6.34557 14.17323,14.173228 z"
         transform="matrix(0.75,0,0,0.75,446.19307,-549.51772)" />
    </g>
    <g
       transform="translate(-134,-4.70079)"
       id="g4021">
      <path
         style="fill:none;stroke:#00ff00;stroke-width:0.13931963;stroke-miterlimit:10;stroke-opacity:1"
         d="m 141.73228,-450.00245 0,88.4375 88.4375,0 0,-35.5 11.43749,0 c 3.05085,5.19856 8.693,8.6875 15.15625,8.6875 9.70242,0 17.5625,-7.86008 17.5625,-17.5625 0,-9.70242 -7.86008,-17.5625 -17.5625,-17.5625 -6.4754,0 -12.1407,3.504 -15.1875,8.71875 l -11.40624,0 0,-35.21875 -88.4375,0 z"
         id="path4023"
         inkscape:connector-curvature="0" />
      <path
         inkscape:connector-curvature="0"
         id="path4025"
         d="m 187.17054,-403.29774 -2.0234,-5.44914 -1.98333,5.44914 z"
         style="font-size:20.51441383px;font-style:normal;font-variant:normal;font-weight:bold;font-stretch:normal;line-height:125%;letter-spacing:0px;word-spacing:0px;fill:none;stroke:#0000ff;stroke-width:0.18000001;stroke-miterlimit:4;stroke-opacity:1;stroke-dasharray:none;font-family:Arial;-inkscape-font-specification:Arial Bold" />
      <path
         sodipodi:nodetypes="cccccscccccccccccccscccscccccccccc"
         inkscape:connector-curvature="0"
         id="path4027"
         d="m 223.22833,-411.3164 0,-31.59944 -74.40944,0 -1e-5,35.43307 4.1042,-0.84344 c 0,-0.74791 0.21202,-1.44742 0.63607,-2.09852 0.42404,-0.65108 1.03507,-1.14691 1.83308,-1.4875 0.798,-0.34055 1.76128,-0.51084 2.88984,-0.51085 1.84309,1e-5 3.23041,0.40402 4.16199,1.21203 0.93155,0.80803 1.4207,1.88651 1.46746,3.23543 l 1.88316,-1.71284 0,-2.48416 11.66957,0 0,2.48416 6.15032,-2.48416 3.13526,0 5.87986,14.68463 1.59267,0 0,-14.68463 6.24047,0 c 1.56929,10e-6 2.70954,0.1319 3.42074,0.39566 0.71118,0.26379 1.28047,0.73291 1.70787,1.40736 0.42737,0.67448 0.64106,1.44577 0.64107,2.31388 -1e-5,1.10186 -0.32389,2.01172 -0.97163,2.72958 -0.64776,0.71788 -1.61605,1.1703 -2.90487,1.35728 0.64106,0.37396 1.17028,0.78465 1.58766,1.23206 0.41736,0.44743 2.49597,2.3786 3.20383,3.52051 l 1.12337,1.72642 4.07189,0.002 0,-12.20047 -4.35731,0 0,-2.48416 11.66958,0 z"
         style="font-size:20.51441383px;font-style:normal;font-variant:normal;font-weight:bold;font-stretch:normal;line-height:125%;letter-spacing:0px;word-spacing:0px;fill:none;stroke:#0000ff;stroke-width:0.18000001;stroke-miterlimit:4;stroke-opacity:1;stroke-dasharray:none;font-family:Arial;-inkscape-font-specification:Arial Bold" />
      <path
         sodipodi:nodetypes="ccccccccccscccccccccccccccccccccccccccccsscccssccccccccccc"
         inkscape:connector-curvature="0"
         id="path4029"
         d="m 219.65503,-412.17262 0,2.48416 -4.34729,0 0,12.20047 -2.96498,0 -4.07189,-0.002 -4.39231,0.002 -2.14359,-3.19536 c -0.76129,-1.14191 -1.28216,-1.86145 -1.56263,-2.15862 -0.28047,-0.29716 -0.57764,-0.50084 -0.89149,-0.61103 -0.31387,-0.11018 -0.81137,-0.16527 -1.4925,-0.16527 l -0.60101,0 0,6.13028 -2.96498,0 -1.59267,0 -3.22541,0 -1.28215,-3.3356 -5.86984,0 -1.21204,3.3356 -3.14527,0 5.71959,-14.68463 -6.15032,2.48416 -4.34729,0 0,12.20047 -2.96497,0 0,-12.20047 -4.35731,0 -1.88316,1.71284 -2.96498,0.13025 c -0.12689,-0.75458 -0.39901,-1.29716 -0.81637,-1.62773 -0.41737,-0.33054 -1.04342,-0.49582 -1.87815,-0.49583 -0.86145,10e-6 -1.53591,0.17698 -2.02339,0.53089 -0.31387,0.22706 -0.4708,0.5309 -0.47079,0.91153 -10e-6,0.34726 0.14691,0.64443 0.44074,0.8915 0.37395,0.31387 1.28214,0.64108 2.72457,0.98164 1.44241,0.34058 2.5092,0.69284 3.20037,1.05678 0.69115,0.36395 1.23205,0.86145 1.62272,1.4925 0.39064,0.63107 0.58597,1.41071 0.58598,2.33892 -1e-5,0.84142 -0.23374,1.62941 -0.70117,2.36397 -0.46747,0.73457 -1.12857,1.28048 -1.98333,1.63775 -0.85478,0.35726 -1.9199,0.5359 -3.19536,0.5359 -1.85645,0 -3.28218,-0.42906 -4.27718,-1.28716 -0.995,-0.85811 -1.58933,-2.10854 -1.78299,-3.7513 l 2.88484,-0.28047 c 0.17362,0.9683 0.52588,1.67949 1.05678,2.13358 0.53088,0.4541 1.24708,0.68115 2.1486,0.68115 0.95493,0 1.67447,-0.20201 2.15862,-0.60602 0.48414,-0.40401 0.72621,-0.87647 0.72622,-1.41738 -1e-5,-0.34724 -0.10185,-0.64274 -0.30551,-0.88649 -0.20369,-0.24373 -0.55928,-0.45576 -1.06679,-0.63606 -0.34726,-0.1202 -1.13859,-0.33389 -2.37399,-0.64108 -1.58933,-0.39399 -2.70454,-0.87813 -3.34561,-1.45244 -0.90151,-0.80801 -1.35227,-1.79303 -1.35227,-2.95499 l -4.1042,0.84344 1e-5,40.74803 74.40944,0 0,-44.58166 z"
         style="font-size:20.51441383px;font-style:normal;font-variant:normal;font-weight:bold;font-stretch:normal;line-height:125%;letter-spacing:0px;word-spacing:0px;fill:none;stroke:#0000ff;stroke-width:0.18000001;stroke-miterlimit:4;stroke-opacity:1;stroke-dasharray:none;font-family:Arial;-inkscape-font-specification:Arial Bold" />
      <path
         inkscape:connector-curvature="0"
         id="path4031"
         d="m 197.18734,-405.96221 2.19368,0 c 1.42238,1e-5 2.31053,-0.0601 2.66447,-0.1803 0.35391,-0.12019 0.63105,-0.32721 0.83139,-0.62104 0.20033,-0.29382 0.3005,-0.6611 0.30051,-1.10185 -1e-5,-0.49415 -0.1319,-0.89315 -0.39567,-1.19701 -0.26378,-0.30383 -0.63607,-0.49582 -1.11687,-0.57596 -0.24041,-0.0334 -0.96162,-0.0501 -2.16363,-0.0501 l -2.31388,0 z"
         style="font-size:20.51441383px;font-style:normal;font-variant:normal;font-weight:bold;font-stretch:normal;line-height:125%;letter-spacing:0px;word-spacing:0px;fill:none;stroke:#0000ff;stroke-width:0.18000001;stroke-miterlimit:4;stroke-opacity:1;stroke-dasharray:none;font-family:Arial;-inkscape-font-specification:Arial Bold" />
    </g>
    <g
       transform="translate(558.19093,96.075)"
       id="g4033">
      <path
         inkscape:connector-curvature="0"
         id="path4035"
         d="m 322.44094,-550.7579 0,35.21875 11.40625,0 c 3.0468,-5.21475 8.7121,-8.71875 15.1875,-8.71875 9.70242,0 17.5625,7.86008 17.5625,17.5625 0,9.70242 -7.86008,17.5625 -17.5625,17.5625 -6.46325,0 -12.1054,-3.48894 -15.15625,-8.6875 l -11.4375,0 0,35.5 0,0.15625 132.87499,0 0,-0.15625 0,-35.5 11.4375,0 c 3.05085,5.19856 8.693,8.6875 15.15625,8.6875 9.70242,0 17.5625,-7.86008 17.5625,-17.5625 0,-9.70242 -7.86008,-17.5625 -17.5625,-17.5625 -6.4754,0 -12.1407,3.504 -15.1875,8.71875 l -11.40625,0 0,-35.21875 -88.43749,0 -44.4375,0 z"
         style="fill:none;stroke:#00ff00;stroke-width:0.18000001;stroke-miterlimit:10;stroke-opacity:1;stroke-dasharray:none" />
      <path
         style="fill:none;stroke:#0000ff;stroke-width:0.09;stroke-miterlimit:4;stroke-opacity:1;stroke-dasharray:none"
         d="m 411.02362,-478.81146 c 3.6317,-2e-5 7.22785,-0.71531 10.58314,-2.10512 l -2.64578,-6.38749 c -2.51647,1.04235 -5.21357,1.57884 -7.93735,1.57885 z"
         id="path4037"
         inkscape:connector-curvature="0"
         sodipodi:nodetypes="ccccc"
         inkscape:transform-center-x="-5.291573"
         inkscape:transform-center-y="23.408776" />
      <path
         inkscape:transform-center-y="20.108141"
         inkscape:transform-center-x="-13.746233"
         sodipodi:nodetypes="ccccc"
         inkscape:connector-curvature="0"
         id="path4039"
         d="m 421.60676,-480.91658 c 3.35525,-1.38981 6.40393,-3.42684 8.97195,-5.99487 l -4.88877,-4.88877 c -1.92602,1.92601 -4.21251,3.4538 -6.72895,4.49616 z"
         style="fill:none;stroke:#0000ff;stroke-width:0.09;stroke-miterlimit:4;stroke-opacity:1;stroke-dasharray:none" />
      <path
         style="fill:none;stroke:#0000ff;stroke-width:0.09;stroke-miterlimit:4;stroke-opacity:1;stroke-dasharray:none"
         d="m 430.57871,-486.91145 c 2.56799,-2.56801 4.60507,-5.61666 5.99487,-8.97195 l -6.38749,-2.64579 c -1.04236,2.51646 -2.57014,4.80296 -4.49613,6.72897 z"
         id="path4041"
         inkscape:connector-curvature="0"
         sodipodi:nodetypes="ccccc"
         inkscape:transform-center-x="-20.108153"
         inkscape:transform-center-y="13.746221" />
      <path
         inkscape:transform-center-y="5.291566"
         inkscape:transform-center-x="-23.408788"
         sodipodi:nodetypes="ccccc"
         inkscape:connector-curvature="0"
         id="path4043"
         d="m 436.57358,-495.8834 c 1.38978,-3.35526 2.10512,-6.9514 2.10512,-10.58314 l -6.91377,-10e-6 c -10e-6,2.7238 -0.53649,5.42091 -1.57882,7.93736 z"
         style="fill:none;stroke:#0000ff;stroke-width:0.09;stroke-miterlimit:4;stroke-opacity:1;stroke-dasharray:none" />
      <path
         sodipodi:type="arc"
         style="fill:none;stroke:#0000ff;stroke-width:0.12;stroke-miterlimit:4;stroke-opacity:1;stroke-dasharray:none"
         id="path4045"
         sodipodi:cx="217.91339"
         sodipodi:cy="57.401573"
         sodipodi:rx="14.173228"
         sodipodi:ry="14.173228"
         d="m 232.08662,57.401573 c 0,7.827658 -6.34557,14.173228 -14.17323,14.173228 -7.82766,0 -14.17323,-6.34557 -14.17323,-14.173228 0,-7.827658 6.34557,-14.173228 14.17323,-14.173228 7.82766,0 14.17323,6.34557 14.17323,14.173228 z"
         transform="matrix(0.75,0,0,0.75,247.58858,-549.51772)" />
    </g>
    <g
       transform="translate(191.24797,-10.19942)"
       id="g4047">
      <path
         inkscape:connector-curvature="0"
         id="path4049"
         d="m 322.44094,-444.48348 0,35.21875 11.40625,0 c 3.0468,-5.21475 8.7121,-8.71875 15.1875,-8.71875 9.70242,0 17.5625,7.86008 17.5625,17.5625 0,9.70242 -7.86008,17.5625 -17.5625,17.5625 -6.46325,0 -12.1054,-3.48894 -15.15625,-8.6875 l -11.4375,0 0,35.5 0,0.15625 132.87499,0 0,-0.15625 0,-35.5 11.4375,0 c 3.05085,5.19856 8.693,8.6875 15.15625,8.6875 9.70242,0 17.5625,-7.86008 17.5625,-17.5625 0,-9.70242 -7.86008,-17.5625 -17.5625,-17.5625 -6.4754,0 -12.1407,3.504 -15.1875,8.71875 l -11.40625,0 0,-35.21875 -88.43749,0 -44.4375,0 z"
         style="fill:none;stroke:#00ff00;stroke-width:0.18000001;stroke-miterlimit:10;stroke-opacity:1;stroke-dasharray:none" />
      <path
         inkscape:transform-center-y="-5.2915686"
         inkscape:transform-center-x="-23.408778"
         sodipodi:nodetypes="ccccc"
         inkscape:connector-curvature="0"
         id="path4051"
         d="m 438.6787,-400.19212 c 0,-3.63172 -0.71532,-7.22787 -2.10512,-10.58314 l -6.38749,2.64579 c 1.04234,2.51645 1.57884,5.21356 1.57884,7.93735 z"
         style="fill:none;stroke:#0000ff;stroke-width:0.09;stroke-miterlimit:4;stroke-opacity:1;stroke-dasharray:none" />
      <path
         style="fill:none;stroke:#0000ff;stroke-width:0.09;stroke-miterlimit:4;stroke-opacity:1;stroke-dasharray:none"
         d="m 436.57358,-410.77526 c -1.3898,-3.35527 -3.42685,-6.40394 -5.99487,-8.97195 l -4.88877,4.88877 c 1.926,1.92601 3.4538,4.21251 4.49615,6.72896 z"
         id="path4056"
         inkscape:connector-curvature="0"
         sodipodi:nodetypes="ccccc"
         inkscape:transform-center-x="-20.108143"
         inkscape:transform-center-y="-13.746224" />
      <path
         style="fill:none;stroke:#0000ff;stroke-width:0.09;stroke-miterlimit:4;stroke-opacity:1;stroke-dasharray:none"
         d="m 430.57871,-380.63703 c 2.56799,-2.56801 4.60507,-5.61666 5.99487,-8.97195 l -6.38749,-2.64579 c -1.04236,2.51646 -2.57014,4.80296 -4.49613,6.72897 z"
         id="path4058"
         inkscape:connector-curvature="0"
         sodipodi:nodetypes="ccccc"
         inkscape:transform-center-x="-20.108153"
         inkscape:transform-center-y="13.746221" />
      <path
         inkscape:transform-center-y="5.291566"
         inkscape:transform-center-x="-23.408788"
         sodipodi:nodetypes="ccccc"
         inkscape:connector-curvature="0"
         id="path4060"
         d="m 436.57358,-389.60898 c 1.38978,-3.35526 2.10512,-6.9514 2.10512,-10.58314 l -6.91377,-1e-5 c -10e-6,2.7238 -0.53649,5.42091 -1.57882,7.93736 z"
         style="fill:none;stroke:#0000ff;stroke-width:0.09;stroke-miterlimit:4;stroke-opacity:1;stroke-dasharray:none" />
      <path
         transform="matrix(0.75,0,0,0.75,247.58858,-443.2433)"
         d="m 232.08662,57.401573 c 0,7.827658 -6.34557,14.173228 -14.17323,14.173228 -7.82766,0 -14.17323,-6.34557 -14.17323,-14.173228 0,-7.827658 6.34557,-14.173228 14.17323,-14.173228 7.82766,0 14.17323,6.34557 14.17323,14.173228 z"
         sodipodi:ry="14.173228"
         sodipodi:rx="14.173228"
         sodipodi:cy="57.401573"
         sodipodi:cx="217.91339"
         id="path4062"
         style="fill:none;stroke:#0000ff;stroke-width:0.12;stroke-miterlimit:4;stroke-opacity:1;stroke-dasharray:none"
         sodipodi:type="arc" />
    </g>
    <g
       transform="translate(543.05788,-116.47389)"
       id="g4064">
      <path
         style="fill:none;stroke:#00ff00;stroke-width:0.18000001;stroke-miterlimit:10;stroke-opacity:1;stroke-dasharray:none"
         d="m 521.04543,-338.20901 0,35.21875 11.40625,0 c 3.0468,-5.21475 8.7121,-8.71875 15.1875,-8.71875 9.70242,0 17.5625,7.86008 17.5625,17.5625 0,9.70242 -7.86008,17.5625 -17.5625,17.5625 -6.46325,0 -12.1054,-3.48894 -15.15625,-8.6875 l -11.4375,0 0,35.5 0,0.15625 132.87499,0 0,-0.15625 0,-35.5 11.4375,0 c 3.05085,5.19856 8.693,8.6875 15.15625,8.6875 9.70242,0 17.5625,-7.86008 17.5625,-17.5625 0,-9.70242 -7.86008,-17.5625 -17.5625,-17.5625 -6.4754,0 -12.1407,3.504 -15.1875,8.71875 l -11.40625,0 0,-35.21875 -88.43749,0 -44.4375,0 z"
         id="path4066"
         inkscape:connector-curvature="0" />
      <path
         inkscape:transform-center-y="20.108151"
         inkscape:transform-center-x="13.746222"
         sodipodi:nodetypes="ccccc"
         inkscape:connector-curvature="0"
         id="path4068"
         d="m 590.07302,-274.36256 c 2.56801,2.568 5.61666,4.60507 8.97195,5.99487 l 2.64578,-6.38749 c -2.51646,-1.04235 -4.80295,-2.57014 -6.72896,-4.49613 z"
         style="fill:none;stroke:#0000ff;stroke-width:0.09;stroke-miterlimit:4;stroke-opacity:1;stroke-dasharray:none" />
      <path
         style="fill:none;stroke:#0000ff;stroke-width:0.09;stroke-miterlimit:4;stroke-opacity:1;stroke-dasharray:none"
         d="m 599.04497,-268.36769 c 3.35526,1.38978 6.9514,2.10512 10.58314,2.10512 l 0,-6.91377 c -2.7238,0 -5.4209,-0.53649 -7.93735,-1.57882 z"
         id="path4070"
         inkscape:connector-curvature="0"
         sodipodi:nodetypes="ccccc"
         inkscape:transform-center-x="5.291567"
         inkscape:transform-center-y="23.408786" />
      <path
         inkscape:transform-center-y="23.408776"
         inkscape:transform-center-x="-5.291573"
         sodipodi:nodetypes="ccccc"
         inkscape:connector-curvature="0"
         id="path4072"
         d="m 609.62811,-266.26257 c 3.6317,-2e-5 7.22785,-0.71531 10.58314,-2.10512 l -2.64578,-6.38749 c -2.51647,1.04235 -5.21357,1.57884 -7.93735,1.57885 z"
         style="fill:none;stroke:#0000ff;stroke-width:0.09;stroke-miterlimit:4;stroke-opacity:1;stroke-dasharray:none" />
      <path
         style="fill:none;stroke:#0000ff;stroke-width:0.09;stroke-miterlimit:4;stroke-opacity:1;stroke-dasharray:none"
         d="m 620.21125,-268.36769 c 3.35525,-1.38981 6.40393,-3.42684 8.97195,-5.99487 l -4.88877,-4.88877 c -1.92602,1.92601 -4.21251,3.4538 -6.72895,4.49616 z"
         id="path4074"
         inkscape:connector-curvature="0"
         sodipodi:nodetypes="ccccc"
         inkscape:transform-center-x="-13.746233"
         inkscape:transform-center-y="20.108141" />
      <path
         transform="matrix(0.75,0,0,0.75,446.19306,-336.96883)"
         d="m 232.08662,57.401573 c 0,7.827658 -6.34557,14.173228 -14.17323,14.173228 -7.82766,0 -14.17323,-6.34557 -14.17323,-14.173228 0,-7.827658 6.34557,-14.173228 14.17323,-14.173228 7.82766,0 14.17323,6.34557 14.17323,14.173228 z"
         sodipodi:ry="14.173228"
         sodipodi:rx="14.173228"
         sodipodi:cy="57.401573"
         sodipodi:cx="217.91339"
         id="path4077"
         style="fill:none;stroke:#0000ff;stroke-width:0.12;stroke-miterlimit:4;stroke-opacity:1;stroke-dasharray:none"
         sodipodi:type="arc" />
    </g>
    <g
       transform="translate(176.11494,-10.19942)"
       id="g4079">
      <path
         inkscape:connector-curvature="0"
         id="path4081"
         d="m 521.04543,-444.48348 0,35.21875 11.40625,0 c 3.0468,-5.21475 8.7121,-8.71875 15.1875,-8.71875 9.70242,0 17.5625,7.86008 17.5625,17.5625 0,9.70242 -7.86008,17.5625 -17.5625,17.5625 -6.46325,0 -12.1054,-3.48894 -15.15625,-8.6875 l -11.4375,0 0,35.5 0,0.15625 132.87499,0 0,-0.15625 0,-35.5 11.4375,0 c 3.05085,5.19856 8.693,8.6875 15.15625,8.6875 9.70242,0 17.5625,-7.86008 17.5625,-17.5625 0,-9.70242 -7.86008,-17.5625 -17.5625,-17.5625 -6.4754,0 -12.1407,3.504 -15.1875,8.71875 l -11.40625,0 0,-35.21875 -88.43749,0 -44.4375,0 z"
         style="fill:none;stroke:#00ff00;stroke-width:0.18000001;stroke-miterlimit:10;stroke-opacity:1;stroke-dasharray:none" />
      <path
         style="fill:none;stroke:#0000ff;stroke-width:0.09;stroke-miterlimit:4;stroke-opacity:1;stroke-dasharray:none"
         d="m 590.07302,-419.74721 c -2.56801,2.56801 -4.60507,5.61667 -5.99487,8.97195 l 6.38749,2.64578 c 1.04234,-2.51645 2.57014,-4.80295 4.49613,-6.72896 z"
         id="path4083"
         inkscape:connector-curvature="0"
         sodipodi:nodetypes="ccccc"
         inkscape:transform-center-x="20.108147"
         inkscape:transform-center-y="-13.746224" />
      <path
         inkscape:transform-center-y="-5.291569"
         inkscape:transform-center-x="23.408782"
         sodipodi:nodetypes="ccccc"
         inkscape:connector-curvature="0"
         id="path4085"
         d="m 584.07815,-410.77526 c -1.38979,3.35527 -2.10512,6.95141 -2.10512,10.58314 l 6.91377,-1e-5 c -10e-6,-2.72378 0.53649,-5.42089 1.57882,-7.93734 z"
         style="fill:none;stroke:#0000ff;stroke-width:0.09;stroke-miterlimit:4;stroke-opacity:1;stroke-dasharray:none" />
      <path
         style="fill:none;stroke:#0000ff;stroke-width:0.09;stroke-miterlimit:4;stroke-opacity:1;stroke-dasharray:none"
         d="m 581.97303,-400.19212 c 10e-6,3.63171 0.71531,7.22786 2.10512,10.58314 l 6.38748,-2.64579 c -1.04235,-2.51645 -1.57883,-5.21356 -1.57884,-7.93734 z"
         id="path4087"
         inkscape:connector-curvature="0"
         sodipodi:nodetypes="ccccc"
         inkscape:transform-center-x="23.408777"
         inkscape:transform-center-y="5.291571" />
      <path
         inkscape:transform-center-y="13.746231"
         inkscape:transform-center-x="20.108142"
         sodipodi:nodetypes="ccccc"
         inkscape:connector-curvature="0"
         id="path4089"
         d="m 584.07815,-389.60898 c 1.3898,3.35526 3.42684,6.40393 5.99487,8.97195 l 4.88876,-4.88877 c -1.92601,-1.92601 -3.45379,-4.21251 -4.49615,-6.72895 z"
         style="fill:none;stroke:#0000ff;stroke-width:0.09;stroke-miterlimit:4;stroke-opacity:1;stroke-dasharray:none" />
      <path
         transform="matrix(0.75,0,0,0.75,446.19307,-443.2433)"
         d="m 232.08662,57.401573 c 0,7.827658 -6.34557,14.173228 -14.17323,14.173228 -7.82766,0 -14.17323,-6.34557 -14.17323,-14.173228 0,-7.827658 6.34557,-14.173228 14.17323,-14.173228 7.82766,0 14.17323,6.34557 14.17323,14.173228 z"
         sodipodi:ry="14.173228"
         sodipodi:rx="14.173228"
         sodipodi:cy="57.401573"
         sodipodi:cx="217.91339"
         id="path4091"
         style="fill:none;stroke:#0000ff;stroke-width:0.12;stroke-miterlimit:4;stroke-opacity:1;stroke-dasharray:none"
         sodipodi:type="arc" />
    </g>
    <g
       transform="translate(7.7764709,-116.47389)"
       id="g4093">
      <path
         inkscape:connector-curvature="0"
         id="path4095"
         d="m 322.44094,-338.20901 0,35.21875 11.40625,0 c 3.0468,-5.21475 8.7121,-8.71875 15.1875,-8.71875 9.70242,0 17.5625,7.86008 17.5625,17.5625 0,9.70242 -7.86008,17.5625 -17.5625,17.5625 -6.46325,0 -12.1054,-3.48894 -15.15625,-8.6875 l -11.4375,0 0,35.5 0,0.15625 132.87499,0 0,-0.15625 0,-35.5 11.4375,0 c 3.05085,5.19856 8.693,8.6875 15.15625,8.6875 9.70242,0 17.5625,-7.86008 17.5625,-17.5625 0,-9.70242 -7.86008,-17.5625 -17.5625,-17.5625 -6.4754,0 -12.1407,3.504 -15.1875,8.71875 l -11.40625,0 0,-35.21875 -88.43749,0 -44.4375,0 z"
         style="fill:none;stroke:#00ff00;stroke-width:0.18000001;stroke-miterlimit:10;stroke-opacity:1;stroke-dasharray:none" />
      <path
         inkscape:transform-center-y="-23.408779"
         inkscape:transform-center-x="-5.291573"
         sodipodi:nodetypes="ccccc"
         inkscape:connector-curvature="0"
         id="path4097"
         d="m 421.60676,-319.46761 c -3.35527,-1.3898 -6.95142,-2.10512 -10.58314,-2.10512 l 0,6.91377 c 2.72378,0 5.4209,0.53649 7.93735,1.57883 z"
         style="fill:none;stroke:#0000ff;stroke-width:0.09;stroke-miterlimit:4;stroke-opacity:1;stroke-dasharray:none" />
      <path
         style="fill:none;stroke:#0000ff;stroke-width:0.09;stroke-miterlimit:4;stroke-opacity:1;stroke-dasharray:none"
         d="m 411.02362,-321.57273 c -3.63172,0 -7.22787,0.71532 -10.58314,2.10512 l 2.64578,6.38749 c 2.51645,-1.04235 5.21357,-1.57884 7.93735,-1.57885 z"
         id="path4099"
         inkscape:connector-curvature="0"
         sodipodi:nodetypes="ccccc"
         inkscape:transform-center-x="5.291567"
         inkscape:transform-center-y="-23.408774" />
      <path
         inkscape:transform-center-y="-20.108139"
         inkscape:transform-center-x="13.746227"
         sodipodi:nodetypes="ccccc"
         inkscape:connector-curvature="0"
         id="path4101"
         d="m 400.44048,-319.46761 c -3.35527,1.3898 -6.40394,3.42685 -8.97195,5.99487 l 4.88877,4.88877 c 1.926,-1.92601 4.21251,-3.4538 6.72895,-4.49616 z"
         style="fill:none;stroke:#0000ff;stroke-width:0.09;stroke-miterlimit:4;stroke-opacity:1;stroke-dasharray:none" />
      <path
         inkscape:transform-center-y="-20.108144"
         inkscape:transform-center-x="-13.746228"
         sodipodi:nodetypes="ccccc"
         inkscape:connector-curvature="0"
         id="path4103"
         d="m 430.57871,-313.47274 c -2.56801,-2.56802 -5.61668,-4.60507 -8.97195,-5.99487 l -2.64578,6.38749 c 2.51644,1.04235 4.80295,2.57014 6.72896,4.49614 z"
         style="fill:none;stroke:#0000ff;stroke-width:0.09;stroke-miterlimit:4;stroke-opacity:1;stroke-dasharray:none" />
      <path
         transform="matrix(0.75,0,0,0.75,247.58857,-336.96883)"
         d="m 232.08662,57.401573 c 0,7.827658 -6.34557,14.173228 -14.17323,14.173228 -7.82766,0 -14.17323,-6.34557 -14.17323,-14.173228 0,-7.827658 6.34557,-14.173228 14.17323,-14.173228 7.82766,0 14.17323,6.34557 14.17323,14.173228 z"
         sodipodi:ry="14.173228"
         sodipodi:rx="14.173228"
         sodipodi:cy="57.401573"
         sodipodi:cx="217.91339"
         id="path4105"
         style="fill:none;stroke:#0000ff;stroke-width:0.12;stroke-miterlimit:4;stroke-opacity:1;stroke-dasharray:none"
         sodipodi:type="arc" />
    </g>
    <g
       transform="translate(-374.2995,96.075)"
       id="g4107">
      <path
         inkscape:connector-curvature="0"
         id="path4109"
         d="m 521.04543,-550.7579 0,35.21875 11.40625,0 c 3.0468,-5.21475 8.7121,-8.71875 15.1875,-8.71875 9.70242,0 17.5625,7.86008 17.5625,17.5625 0,9.70242 -7.86008,17.5625 -17.5625,17.5625 -6.46325,0 -12.1054,-3.48894 -15.15625,-8.6875 l -11.4375,0 0,35.5 0,0.15625 132.87499,0 0,-0.15625 0,-35.5 11.4375,0 c 3.05085,5.19856 8.693,8.6875 15.15625,8.6875 9.70242,0 17.5625,-7.86008 17.5625,-17.5625 0,-9.70242 -7.86008,-17.5625 -17.5625,-17.5625 -6.4754,0 -12.1407,3.504 -15.1875,8.71875 l -11.40625,0 0,-35.21875 -88.43749,0 -44.4375,0 z"
         style="fill:none;stroke:#00ff00;stroke-width:0.18000001;stroke-miterlimit:10;stroke-opacity:1;stroke-dasharray:none" />
      <path
         inkscape:transform-center-y="-5.2915686"
         inkscape:transform-center-x="-23.408778"
         sodipodi:nodetypes="ccccc"
         inkscape:connector-curvature="0"
         id="path4111"
         d="m 637.28319,-506.46654 c 0,-3.63172 -0.71532,-7.22787 -2.10512,-10.58314 l -6.38749,2.64579 c 1.04234,2.51645 1.57884,5.21356 1.57884,7.93735 z"
         style="fill:none;stroke:#0000ff;stroke-width:0.09;stroke-miterlimit:4;stroke-opacity:1;stroke-dasharray:none" />
      <path
         style="fill:none;stroke:#0000ff;stroke-width:0.09;stroke-miterlimit:4;stroke-opacity:1;stroke-dasharray:none"
         d="m 635.17807,-517.04968 c -1.3898,-3.35527 -3.42685,-6.40394 -5.99487,-8.97195 l -4.88877,4.88877 c 1.926,1.92601 3.4538,4.21251 4.49615,6.72896 z"
         id="path4113"
         inkscape:connector-curvature="0"
         sodipodi:nodetypes="ccccc"
         inkscape:transform-center-x="-20.108143"
         inkscape:transform-center-y="-13.746224" />
      <path
         inkscape:transform-center-y="-23.408779"
         inkscape:transform-center-x="-5.291573"
         sodipodi:nodetypes="ccccc"
         inkscape:connector-curvature="0"
         id="path4115"
         d="m 620.21125,-532.0165 c -3.35527,-1.3898 -6.95142,-2.10512 -10.58314,-2.10512 l 0,6.91377 c 2.72378,0 5.4209,0.53649 7.93735,1.57883 z"
         style="fill:none;stroke:#0000ff;stroke-width:0.09;stroke-miterlimit:4;stroke-opacity:1;stroke-dasharray:none" />
      <path
         inkscape:transform-center-y="-20.108144"
         inkscape:transform-center-x="-13.746228"
         sodipodi:nodetypes="ccccc"
         inkscape:connector-curvature="0"
         id="path4117"
         d="m 629.1832,-526.02163 c -2.56801,-2.56802 -5.61668,-4.60507 -8.97195,-5.99487 l -2.64578,6.38749 c 2.51644,1.04235 4.80295,2.57014 6.72896,4.49614 z"
         style="fill:none;stroke:#0000ff;stroke-width:0.09;stroke-miterlimit:4;stroke-opacity:1;stroke-dasharray:none" />
      <path
         transform="matrix(0.75,0,0,0.75,446.19307,-549.51772)"
         d="m 232.08662,57.401573 c 0,7.827658 -6.34557,14.173228 -14.17323,14.173228 -7.82766,0 -14.17323,-6.34557 -14.17323,-14.173228 0,-7.827658 6.34557,-14.173228 14.17323,-14.173228 7.82766,0 14.17323,6.34557 14.17323,14.173228 z"
         sodipodi:ry="14.173228"
         sodipodi:rx="14.173228"
         sodipodi:cy="57.401573"
         sodipodi:cx="217.91339"
         id="path4119"
         style="fill:none;stroke:#0000ff;stroke-width:0.12;stroke-miterlimit:4;stroke-opacity:1;stroke-dasharray:none"
         sodipodi:type="arc" />
    </g>
    <g
       id="g4121"
       transform="translate(-134,101.59842)">
      <path
         inkscape:connector-curvature="0"
         id="path4123"
         d="m 141.73228,-450.00245 0,88.4375 88.4375,0 0,-35.5 11.43749,0 c 3.05085,5.19856 8.693,8.6875 15.15625,8.6875 9.70242,0 17.5625,-7.86008 17.5625,-17.5625 0,-9.70242 -7.86008,-17.5625 -17.5625,-17.5625 -6.4754,0 -12.1407,3.504 -15.1875,8.71875 l -11.40624,0 0,-35.21875 -88.4375,0 z"
         style="fill:none;stroke:#00ff00;stroke-width:0.13931963;stroke-miterlimit:10;stroke-opacity:1" />
      <path
         style="font-size:20.51441383px;font-style:normal;font-variant:normal;font-weight:bold;font-stretch:normal;line-height:125%;letter-spacing:0px;word-spacing:0px;fill:none;stroke:#0000ff;stroke-width:0.18000001;stroke-miterlimit:4;stroke-opacity:1;stroke-dasharray:none;font-family:Arial;-inkscape-font-specification:Arial Bold"
         d="m 187.17054,-403.29774 -2.0234,-5.44914 -1.98333,5.44914 z"
         id="path4125"
         inkscape:connector-curvature="0" />
      <path
         style="font-size:20.51441383px;font-style:normal;font-variant:normal;font-weight:bold;font-stretch:normal;line-height:125%;letter-spacing:0px;word-spacing:0px;fill:none;stroke:#0000ff;stroke-width:0.18000001;stroke-miterlimit:4;stroke-opacity:1;stroke-dasharray:none;font-family:Arial;-inkscape-font-specification:Arial Bold"
         d="m 223.22833,-411.3164 0,-31.59944 -74.40944,0 -1e-5,35.43307 4.1042,-0.84344 c 0,-0.74791 0.21202,-1.44742 0.63607,-2.09852 0.42404,-0.65108 1.03507,-1.14691 1.83308,-1.4875 0.798,-0.34055 1.76128,-0.51084 2.88984,-0.51085 1.84309,1e-5 3.23041,0.40402 4.16199,1.21203 0.93155,0.80803 1.4207,1.88651 1.46746,3.23543 l 1.88316,-1.71284 0,-2.48416 11.66957,0 0,2.48416 6.15032,-2.48416 3.13526,0 5.87986,14.68463 1.59267,0 0,-14.68463 6.24047,0 c 1.56929,10e-6 2.70954,0.1319 3.42074,0.39566 0.71118,0.26379 1.28047,0.73291 1.70787,1.40736 0.42737,0.67448 0.64106,1.44577 0.64107,2.31388 -1e-5,1.10186 -0.32389,2.01172 -0.97163,2.72958 -0.64776,0.71788 -1.61605,1.1703 -2.90487,1.35728 0.64106,0.37396 1.17028,0.78465 1.58766,1.23206 0.41736,0.44743 2.49597,2.3786 3.20383,3.52051 l 1.12337,1.72642 4.07189,0.002 0,-12.20047 -4.35731,0 0,-2.48416 11.66958,0 z"
         id="path4127"
         inkscape:connector-curvature="0"
         sodipodi:nodetypes="cccccscccccccccccccscccscccccccccc" />
      <path
         style="font-size:20.51441383px;font-style:normal;font-variant:normal;font-weight:bold;font-stretch:normal;line-height:125%;letter-spacing:0px;word-spacing:0px;fill:none;stroke:#0000ff;stroke-width:0.18000001;stroke-miterlimit:4;stroke-opacity:1;stroke-dasharray:none;font-family:Arial;-inkscape-font-specification:Arial Bold"
         d="m 219.65503,-412.17262 0,2.48416 -4.34729,0 0,12.20047 -2.96498,0 -4.07189,-0.002 -4.39231,0.002 -2.14359,-3.19536 c -0.76129,-1.14191 -1.28216,-1.86145 -1.56263,-2.15862 -0.28047,-0.29716 -0.57764,-0.50084 -0.89149,-0.61103 -0.31387,-0.11018 -0.81137,-0.16527 -1.4925,-0.16527 l -0.60101,0 0,6.13028 -2.96498,0 -1.59267,0 -3.22541,0 -1.28215,-3.3356 -5.86984,0 -1.21204,3.3356 -3.14527,0 5.71959,-14.68463 -6.15032,2.48416 -4.34729,0 0,12.20047 -2.96497,0 0,-12.20047 -4.35731,0 -1.88316,1.71284 -2.96498,0.13025 c -0.12689,-0.75458 -0.39901,-1.29716 -0.81637,-1.62773 -0.41737,-0.33054 -1.04342,-0.49582 -1.87815,-0.49583 -0.86145,10e-6 -1.53591,0.17698 -2.02339,0.53089 -0.31387,0.22706 -0.4708,0.5309 -0.47079,0.91153 -10e-6,0.34726 0.14691,0.64443 0.44074,0.8915 0.37395,0.31387 1.28214,0.64108 2.72457,0.98164 1.44241,0.34058 2.5092,0.69284 3.20037,1.05678 0.69115,0.36395 1.23205,0.86145 1.62272,1.4925 0.39064,0.63107 0.58597,1.41071 0.58598,2.33892 -1e-5,0.84142 -0.23374,1.62941 -0.70117,2.36397 -0.46747,0.73457 -1.12857,1.28048 -1.98333,1.63775 -0.85478,0.35726 -1.9199,0.5359 -3.19536,0.5359 -1.85645,0 -3.28218,-0.42906 -4.27718,-1.28716 -0.995,-0.85811 -1.58933,-2.10854 -1.78299,-3.7513 l 2.88484,-0.28047 c 0.17362,0.9683 0.52588,1.67949 1.05678,2.13358 0.53088,0.4541 1.24708,0.68115 2.1486,0.68115 0.95493,0 1.67447,-0.20201 2.15862,-0.60602 0.48414,-0.40401 0.72621,-0.87647 0.72622,-1.41738 -1e-5,-0.34724 -0.10185,-0.64274 -0.30551,-0.88649 -0.20369,-0.24373 -0.55928,-0.45576 -1.06679,-0.63606 -0.34726,-0.1202 -1.13859,-0.33389 -2.37399,-0.64108 -1.58933,-0.39399 -2.70454,-0.87813 -3.34561,-1.45244 -0.90151,-0.80801 -1.35227,-1.79303 -1.35227,-2.95499 l -4.1042,0.84344 1e-5,40.74803 74.40944,0 0,-44.58166 z"
         id="path4129"
         inkscape:connector-curvature="0"
         sodipodi:nodetypes="ccccccccccscccccccccccccccccccccccccccccsscccssccccccccccc" />
      <path
         style="font-size:20.51441383px;font-style:normal;font-variant:normal;font-weight:bold;font-stretch:normal;line-height:125%;letter-spacing:0px;word-spacing:0px;fill:none;stroke:#0000ff;stroke-width:0.18000001;stroke-miterlimit:4;stroke-opacity:1;stroke-dasharray:none;font-family:Arial;-inkscape-font-specification:Arial Bold"
         d="m 197.18734,-405.96221 2.19368,0 c 1.42238,1e-5 2.31053,-0.0601 2.66447,-0.1803 0.35391,-0.12019 0.63105,-0.32721 0.83139,-0.62104 0.20033,-0.29382 0.3005,-0.6611 0.30051,-1.10185 -1e-5,-0.49415 -0.1319,-0.89315 -0.39567,-1.19701 -0.26378,-0.30383 -0.63607,-0.49582 -1.11687,-0.57596 -0.24041,-0.0334 -0.96162,-0.0501 -2.16363,-0.0501 l -2.31388,0 z"
         id="path4131"
         inkscape:connector-curvature="0" />
    </g>
    <g
       id="g4133"
       transform="translate(558.19093,202.37421)">
      <path
         style="fill:none;stroke:#00ff00;stroke-width:0.18000001;stroke-miterlimit:10;stroke-opacity:1;stroke-dasharray:none"
         d="m 322.44094,-550.7579 0,35.21875 11.40625,0 c 3.0468,-5.21475 8.7121,-8.71875 15.1875,-8.71875 9.70242,0 17.5625,7.86008 17.5625,17.5625 0,9.70242 -7.86008,17.5625 -17.5625,17.5625 -6.46325,0 -12.1054,-3.48894 -15.15625,-8.6875 l -11.4375,0 0,35.5 0,0.15625 132.87499,0 0,-0.15625 0,-35.5 11.4375,0 c 3.05085,5.19856 8.693,8.6875 15.15625,8.6875 9.70242,0 17.5625,-7.86008 17.5625,-17.5625 0,-9.70242 -7.86008,-17.5625 -17.5625,-17.5625 -6.4754,0 -12.1407,3.504 -15.1875,8.71875 l -11.40625,0 0,-35.21875 -88.43749,0 -44.4375,0 z"
         id="path4135"
         inkscape:connector-curvature="0" />
      <path
         inkscape:transform-center-y="23.408776"
         inkscape:transform-center-x="-5.291573"
         sodipodi:nodetypes="ccccc"
         inkscape:connector-curvature="0"
         id="path4137"
         d="m 411.02362,-478.81146 c 3.6317,-2e-5 7.22785,-0.71531 10.58314,-2.10512 l -2.64578,-6.38749 c -2.51647,1.04235 -5.21357,1.57884 -7.93735,1.57885 z"
         style="fill:none;stroke:#0000ff;stroke-width:0.09;stroke-miterlimit:4;stroke-opacity:1;stroke-dasharray:none" />
      <path
         style="fill:none;stroke:#0000ff;stroke-width:0.09;stroke-miterlimit:4;stroke-opacity:1;stroke-dasharray:none"
         d="m 421.60676,-480.91658 c 3.35525,-1.38981 6.40393,-3.42684 8.97195,-5.99487 l -4.88877,-4.88877 c -1.92602,1.92601 -4.21251,3.4538 -6.72895,4.49616 z"
         id="path4139"
         inkscape:connector-curvature="0"
         sodipodi:nodetypes="ccccc"
         inkscape:transform-center-x="-13.746233"
         inkscape:transform-center-y="20.108141" />
      <path
         inkscape:transform-center-y="13.746221"
         inkscape:transform-center-x="-20.108153"
         sodipodi:nodetypes="ccccc"
         inkscape:connector-curvature="0"
         id="path4141"
         d="m 430.57871,-486.91145 c 2.56799,-2.56801 4.60507,-5.61666 5.99487,-8.97195 l -6.38749,-2.64579 c -1.04236,2.51646 -2.57014,4.80296 -4.49613,6.72897 z"
         style="fill:none;stroke:#0000ff;stroke-width:0.09;stroke-miterlimit:4;stroke-opacity:1;stroke-dasharray:none" />
      <path
         style="fill:none;stroke:#0000ff;stroke-width:0.09;stroke-miterlimit:4;stroke-opacity:1;stroke-dasharray:none"
         d="m 436.57358,-495.8834 c 1.38978,-3.35526 2.10512,-6.9514 2.10512,-10.58314 l -6.91377,-10e-6 c -10e-6,2.7238 -0.53649,5.42091 -1.57882,7.93736 z"
         id="path4143"
         inkscape:connector-curvature="0"
         sodipodi:nodetypes="ccccc"
         inkscape:transform-center-x="-23.408788"
         inkscape:transform-center-y="5.291566" />
      <path
         transform="matrix(0.75,0,0,0.75,247.58858,-549.51772)"
         d="m 232.08662,57.401573 c 0,7.827658 -6.34557,14.173228 -14.17323,14.173228 -7.82766,0 -14.17323,-6.34557 -14.17323,-14.173228 0,-7.827658 6.34557,-14.173228 14.17323,-14.173228 7.82766,0 14.17323,6.34557 14.17323,14.173228 z"
         sodipodi:ry="14.173228"
         sodipodi:rx="14.173228"
         sodipodi:cy="57.401573"
         sodipodi:cx="217.91339"
         id="path4145"
         style="fill:none;stroke:#0000ff;stroke-width:0.12;stroke-miterlimit:4;stroke-opacity:1;stroke-dasharray:none"
         sodipodi:type="arc" />
    </g>
    <g
       id="g4147"
       transform="translate(191.24797,96.09979)">
      <path
         style="fill:none;stroke:#00ff00;stroke-width:0.18000001;stroke-miterlimit:10;stroke-opacity:1;stroke-dasharray:none"
         d="m 322.44094,-444.48348 0,35.21875 11.40625,0 c 3.0468,-5.21475 8.7121,-8.71875 15.1875,-8.71875 9.70242,0 17.5625,7.86008 17.5625,17.5625 0,9.70242 -7.86008,17.5625 -17.5625,17.5625 -6.46325,0 -12.1054,-3.48894 -15.15625,-8.6875 l -11.4375,0 0,35.5 0,0.15625 132.87499,0 0,-0.15625 0,-35.5 11.4375,0 c 3.05085,5.19856 8.693,8.6875 15.15625,8.6875 9.70242,0 17.5625,-7.86008 17.5625,-17.5625 0,-9.70242 -7.86008,-17.5625 -17.5625,-17.5625 -6.4754,0 -12.1407,3.504 -15.1875,8.71875 l -11.40625,0 0,-35.21875 -88.43749,0 -44.4375,0 z"
         id="path4149"
         inkscape:connector-curvature="0" />
      <path
         style="fill:none;stroke:#0000ff;stroke-width:0.09;stroke-miterlimit:4;stroke-opacity:1;stroke-dasharray:none"
         d="m 438.6787,-400.19212 c 0,-3.63172 -0.71532,-7.22787 -2.10512,-10.58314 l -6.38749,2.64579 c 1.04234,2.51645 1.57884,5.21356 1.57884,7.93735 z"
         id="path4151"
         inkscape:connector-curvature="0"
         sodipodi:nodetypes="ccccc"
         inkscape:transform-center-x="-23.408778"
         inkscape:transform-center-y="-5.2915686" />
      <path
         inkscape:transform-center-y="-13.746224"
         inkscape:transform-center-x="-20.108143"
         sodipodi:nodetypes="ccccc"
         inkscape:connector-curvature="0"
         id="path4153"
         d="m 436.57358,-410.77526 c -1.3898,-3.35527 -3.42685,-6.40394 -5.99487,-8.97195 l -4.88877,4.88877 c 1.926,1.92601 3.4538,4.21251 4.49615,6.72896 z"
         style="fill:none;stroke:#0000ff;stroke-width:0.09;stroke-miterlimit:4;stroke-opacity:1;stroke-dasharray:none" />
      <path
         inkscape:transform-center-y="13.746221"
         inkscape:transform-center-x="-20.108153"
         sodipodi:nodetypes="ccccc"
         inkscape:connector-curvature="0"
         id="path4155"
         d="m 430.57871,-380.63703 c 2.56799,-2.56801 4.60507,-5.61666 5.99487,-8.97195 l -6.38749,-2.64579 c -1.04236,2.51646 -2.57014,4.80296 -4.49613,6.72897 z"
         style="fill:none;stroke:#0000ff;stroke-width:0.09;stroke-miterlimit:4;stroke-opacity:1;stroke-dasharray:none" />
      <path
         style="fill:none;stroke:#0000ff;stroke-width:0.09;stroke-miterlimit:4;stroke-opacity:1;stroke-dasharray:none"
         d="m 436.57358,-389.60898 c 1.38978,-3.35526 2.10512,-6.9514 2.10512,-10.58314 l -6.91377,-1e-5 c -10e-6,2.7238 -0.53649,5.42091 -1.57882,7.93736 z"
         id="path4157"
         inkscape:connector-curvature="0"
         sodipodi:nodetypes="ccccc"
         inkscape:transform-center-x="-23.408788"
         inkscape:transform-center-y="5.291566" />
      <path
         sodipodi:type="arc"
         style="fill:none;stroke:#0000ff;stroke-width:0.12;stroke-miterlimit:4;stroke-opacity:1;stroke-dasharray:none"
         id="path4159"
         sodipodi:cx="217.91339"
         sodipodi:cy="57.401573"
         sodipodi:rx="14.173228"
         sodipodi:ry="14.173228"
         d="m 232.08662,57.401573 c 0,7.827658 -6.34557,14.173228 -14.17323,14.173228 -7.82766,0 -14.17323,-6.34557 -14.17323,-14.173228 0,-7.827658 6.34557,-14.173228 14.17323,-14.173228 7.82766,0 14.17323,6.34557 14.17323,14.173228 z"
         transform="matrix(0.75,0,0,0.75,247.58858,-443.2433)" />
    </g>
    <g
       id="g4161"
       transform="translate(543.05788,-10.17468)">
      <path
         inkscape:connector-curvature="0"
         id="path4163"
         d="m 521.04543,-338.20901 0,35.21875 11.40625,0 c 3.0468,-5.21475 8.7121,-8.71875 15.1875,-8.71875 9.70242,0 17.5625,7.86008 17.5625,17.5625 0,9.70242 -7.86008,17.5625 -17.5625,17.5625 -6.46325,0 -12.1054,-3.48894 -15.15625,-8.6875 l -11.4375,0 0,35.5 0,0.15625 132.87499,0 0,-0.15625 0,-35.5 11.4375,0 c 3.05085,5.19856 8.693,8.6875 15.15625,8.6875 9.70242,0 17.5625,-7.86008 17.5625,-17.5625 0,-9.70242 -7.86008,-17.5625 -17.5625,-17.5625 -6.4754,0 -12.1407,3.504 -15.1875,8.71875 l -11.40625,0 0,-35.21875 -88.43749,0 -44.4375,0 z"
         style="fill:none;stroke:#00ff00;stroke-width:0.18000001;stroke-miterlimit:10;stroke-opacity:1;stroke-dasharray:none" />
      <path
         style="fill:none;stroke:#0000ff;stroke-width:0.09;stroke-miterlimit:4;stroke-opacity:1;stroke-dasharray:none"
         d="m 590.07302,-274.36256 c 2.56801,2.568 5.61666,4.60507 8.97195,5.99487 l 2.64578,-6.38749 c -2.51646,-1.04235 -4.80295,-2.57014 -6.72896,-4.49613 z"
         id="path4165"
         inkscape:connector-curvature="0"
         sodipodi:nodetypes="ccccc"
         inkscape:transform-center-x="13.746222"
         inkscape:transform-center-y="20.108151" />
      <path
         inkscape:transform-center-y="23.408786"
         inkscape:transform-center-x="5.291567"
         sodipodi:nodetypes="ccccc"
         inkscape:connector-curvature="0"
         id="path4167"
         d="m 599.04497,-268.36769 c 3.35526,1.38978 6.9514,2.10512 10.58314,2.10512 l 0,-6.91377 c -2.7238,0 -5.4209,-0.53649 -7.93735,-1.57882 z"
         style="fill:none;stroke:#0000ff;stroke-width:0.09;stroke-miterlimit:4;stroke-opacity:1;stroke-dasharray:none" />
      <path
         style="fill:none;stroke:#0000ff;stroke-width:0.09;stroke-miterlimit:4;stroke-opacity:1;stroke-dasharray:none"
         d="m 609.62811,-266.26257 c 3.6317,-2e-5 7.22785,-0.71531 10.58314,-2.10512 l -2.64578,-6.38749 c -2.51647,1.04235 -5.21357,1.57884 -7.93735,1.57885 z"
         id="path4169"
         inkscape:connector-curvature="0"
         sodipodi:nodetypes="ccccc"
         inkscape:transform-center-x="-5.291573"
         inkscape:transform-center-y="23.408776" />
      <path
         inkscape:transform-center-y="20.108141"
         inkscape:transform-center-x="-13.746233"
         sodipodi:nodetypes="ccccc"
         inkscape:connector-curvature="0"
         id="path4171"
         d="m 620.21125,-268.36769 c 3.35525,-1.38981 6.40393,-3.42684 8.97195,-5.99487 l -4.88877,-4.88877 c -1.92602,1.92601 -4.21251,3.4538 -6.72895,4.49616 z"
         style="fill:none;stroke:#0000ff;stroke-width:0.09;stroke-miterlimit:4;stroke-opacity:1;stroke-dasharray:none" />
      <path
         sodipodi:type="arc"
         style="fill:none;stroke:#0000ff;stroke-width:0.12;stroke-miterlimit:4;stroke-opacity:1;stroke-dasharray:none"
         id="path4173"
         sodipodi:cx="217.91339"
         sodipodi:cy="57.401573"
         sodipodi:rx="14.173228"
         sodipodi:ry="14.173228"
         d="m 232.08662,57.401573 c 0,7.827658 -6.34557,14.173228 -14.17323,14.173228 -7.82766,0 -14.17323,-6.34557 -14.17323,-14.173228 0,-7.827658 6.34557,-14.173228 14.17323,-14.173228 7.82766,0 14.17323,6.34557 14.17323,14.173228 z"
         transform="matrix(0.75,0,0,0.75,446.19306,-336.96883)" />
    </g>
    <g
       id="g4175"
       transform="translate(176.11494,96.09979)">
      <path
         style="fill:none;stroke:#00ff00;stroke-width:0.18000001;stroke-miterlimit:10;stroke-opacity:1;stroke-dasharray:none"
         d="m 521.04543,-444.48348 0,35.21875 11.40625,0 c 3.0468,-5.21475 8.7121,-8.71875 15.1875,-8.71875 9.70242,0 17.5625,7.86008 17.5625,17.5625 0,9.70242 -7.86008,17.5625 -17.5625,17.5625 -6.46325,0 -12.1054,-3.48894 -15.15625,-8.6875 l -11.4375,0 0,35.5 0,0.15625 132.87499,0 0,-0.15625 0,-35.5 11.4375,0 c 3.05085,5.19856 8.693,8.6875 15.15625,8.6875 9.70242,0 17.5625,-7.86008 17.5625,-17.5625 0,-9.70242 -7.86008,-17.5625 -17.5625,-17.5625 -6.4754,0 -12.1407,3.504 -15.1875,8.71875 l -11.40625,0 0,-35.21875 -88.43749,0 -44.4375,0 z"
         id="path4177"
         inkscape:connector-curvature="0" />
      <path
         inkscape:transform-center-y="-13.746224"
         inkscape:transform-center-x="20.108147"
         sodipodi:nodetypes="ccccc"
         inkscape:connector-curvature="0"
         id="path4179"
         d="m 590.07302,-419.74721 c -2.56801,2.56801 -4.60507,5.61667 -5.99487,8.97195 l 6.38749,2.64578 c 1.04234,-2.51645 2.57014,-4.80295 4.49613,-6.72896 z"
         style="fill:none;stroke:#0000ff;stroke-width:0.09;stroke-miterlimit:4;stroke-opacity:1;stroke-dasharray:none" />
      <path
         style="fill:none;stroke:#0000ff;stroke-width:0.09;stroke-miterlimit:4;stroke-opacity:1;stroke-dasharray:none"
         d="m 584.07815,-410.77526 c -1.38979,3.35527 -2.10512,6.95141 -2.10512,10.58314 l 6.91377,-1e-5 c -10e-6,-2.72378 0.53649,-5.42089 1.57882,-7.93734 z"
         id="path4181"
         inkscape:connector-curvature="0"
         sodipodi:nodetypes="ccccc"
         inkscape:transform-center-x="23.408782"
         inkscape:transform-center-y="-5.291569" />
      <path
         inkscape:transform-center-y="5.291571"
         inkscape:transform-center-x="23.408777"
         sodipodi:nodetypes="ccccc"
         inkscape:connector-curvature="0"
         id="path4183"
         d="m 581.97303,-400.19212 c 10e-6,3.63171 0.71531,7.22786 2.10512,10.58314 l 6.38748,-2.64579 c -1.04235,-2.51645 -1.57883,-5.21356 -1.57884,-7.93734 z"
         style="fill:none;stroke:#0000ff;stroke-width:0.09;stroke-miterlimit:4;stroke-opacity:1;stroke-dasharray:none" />
      <path
         style="fill:none;stroke:#0000ff;stroke-width:0.09;stroke-miterlimit:4;stroke-opacity:1;stroke-dasharray:none"
         d="m 584.07815,-389.60898 c 1.3898,3.35526 3.42684,6.40393 5.99487,8.97195 l 4.88876,-4.88877 c -1.92601,-1.92601 -3.45379,-4.21251 -4.49615,-6.72895 z"
         id="path4185"
         inkscape:connector-curvature="0"
         sodipodi:nodetypes="ccccc"
         inkscape:transform-center-x="20.108142"
         inkscape:transform-center-y="13.746231" />
      <path
         sodipodi:type="arc"
         style="fill:none;stroke:#0000ff;stroke-width:0.12;stroke-miterlimit:4;stroke-opacity:1;stroke-dasharray:none"
         id="path4187"
         sodipodi:cx="217.91339"
         sodipodi:cy="57.401573"
         sodipodi:rx="14.173228"
         sodipodi:ry="14.173228"
         d="m 232.08662,57.401573 c 0,7.827658 -6.34557,14.173228 -14.17323,14.173228 -7.82766,0 -14.17323,-6.34557 -14.17323,-14.173228 0,-7.827658 6.34557,-14.173228 14.17323,-14.173228 7.82766,0 14.17323,6.34557 14.17323,14.173228 z"
         transform="matrix(0.75,0,0,0.75,446.19307,-443.2433)" />
    </g>
    <g
       id="g4189"
       transform="translate(7.7764709,-10.17468)">
      <path
         style="fill:none;stroke:#00ff00;stroke-width:0.18000001;stroke-miterlimit:10;stroke-opacity:1;stroke-dasharray:none"
         d="m 322.44094,-338.20901 0,35.21875 11.40625,0 c 3.0468,-5.21475 8.7121,-8.71875 15.1875,-8.71875 9.70242,0 17.5625,7.86008 17.5625,17.5625 0,9.70242 -7.86008,17.5625 -17.5625,17.5625 -6.46325,0 -12.1054,-3.48894 -15.15625,-8.6875 l -11.4375,0 0,35.5 0,0.15625 132.87499,0 0,-0.15625 0,-35.5 11.4375,0 c 3.05085,5.19856 8.693,8.6875 15.15625,8.6875 9.70242,0 17.5625,-7.86008 17.5625,-17.5625 0,-9.70242 -7.86008,-17.5625 -17.5625,-17.5625 -6.4754,0 -12.1407,3.504 -15.1875,8.71875 l -11.40625,0 0,-35.21875 -88.43749,0 -44.4375,0 z"
         id="path4191"
         inkscape:connector-curvature="0" />
      <path
         style="fill:none;stroke:#0000ff;stroke-width:0.09;stroke-miterlimit:4;stroke-opacity:1;stroke-dasharray:none"
         d="m 421.60676,-319.46761 c -3.35527,-1.3898 -6.95142,-2.10512 -10.58314,-2.10512 l 0,6.91377 c 2.72378,0 5.4209,0.53649 7.93735,1.57883 z"
         id="path4193"
         inkscape:connector-curvature="0"
         sodipodi:nodetypes="ccccc"
         inkscape:transform-center-x="-5.291573"
         inkscape:transform-center-y="-23.408779" />
      <path
         inkscape:transform-center-y="-23.408774"
         inkscape:transform-center-x="5.291567"
         sodipodi:nodetypes="ccccc"
         inkscape:connector-curvature="0"
         id="path4195"
         d="m 411.02362,-321.57273 c -3.63172,0 -7.22787,0.71532 -10.58314,2.10512 l 2.64578,6.38749 c 2.51645,-1.04235 5.21357,-1.57884 7.93735,-1.57885 z"
         style="fill:none;stroke:#0000ff;stroke-width:0.09;stroke-miterlimit:4;stroke-opacity:1;stroke-dasharray:none" />
      <path
         style="fill:none;stroke:#0000ff;stroke-width:0.09;stroke-miterlimit:4;stroke-opacity:1;stroke-dasharray:none"
         d="m 400.44048,-319.46761 c -3.35527,1.3898 -6.40394,3.42685 -8.97195,5.99487 l 4.88877,4.88877 c 1.926,-1.92601 4.21251,-3.4538 6.72895,-4.49616 z"
         id="path4197"
         inkscape:connector-curvature="0"
         sodipodi:nodetypes="ccccc"
         inkscape:transform-center-x="13.746227"
         inkscape:transform-center-y="-20.108139" />
      <path
         style="fill:none;stroke:#0000ff;stroke-width:0.09;stroke-miterlimit:4;stroke-opacity:1;stroke-dasharray:none"
         d="m 430.57871,-313.47274 c -2.56801,-2.56802 -5.61668,-4.60507 -8.97195,-5.99487 l -2.64578,6.38749 c 2.51644,1.04235 4.80295,2.57014 6.72896,4.49614 z"
         id="path4199"
         inkscape:connector-curvature="0"
         sodipodi:nodetypes="ccccc"
         inkscape:transform-center-x="-13.746228"
         inkscape:transform-center-y="-20.108144" />
      <path
         sodipodi:type="arc"
         style="fill:none;stroke:#0000ff;stroke-width:0.12;stroke-miterlimit:4;stroke-opacity:1;stroke-dasharray:none"
         id="path4201"
         sodipodi:cx="217.91339"
         sodipodi:cy="57.401573"
         sodipodi:rx="14.173228"
         sodipodi:ry="14.173228"
         d="m 232.08662,57.401573 c 0,7.827658 -6.34557,14.173228 -14.17323,14.173228 -7.82766,0 -14.17323,-6.34557 -14.17323,-14.173228 0,-7.827658 6.34557,-14.173228 14.17323,-14.173228 7.82766,0 14.17323,6.34557 14.17323,14.173228 z"
         transform="matrix(0.75,0,0,0.75,247.58857,-336.96883)" />
    </g>
    <g
       id="g4203"
       transform="translate(-374.2995,202.37421)">
      <path
         style="fill:none;stroke:#00ff00;stroke-width:0.18000001;stroke-miterlimit:10;stroke-opacity:1;stroke-dasharray:none"
         d="m 521.04543,-550.7579 0,35.21875 11.40625,0 c 3.0468,-5.21475 8.7121,-8.71875 15.1875,-8.71875 9.70242,0 17.5625,7.86008 17.5625,17.5625 0,9.70242 -7.86008,17.5625 -17.5625,17.5625 -6.46325,0 -12.1054,-3.48894 -15.15625,-8.6875 l -11.4375,0 0,35.5 0,0.15625 132.87499,0 0,-0.15625 0,-35.5 11.4375,0 c 3.05085,5.19856 8.693,8.6875 15.15625,8.6875 9.70242,0 17.5625,-7.86008 17.5625,-17.5625 0,-9.70242 -7.86008,-17.5625 -17.5625,-17.5625 -6.4754,0 -12.1407,3.504 -15.1875,8.71875 l -11.40625,0 0,-35.21875 -88.43749,0 -44.4375,0 z"
         id="path4205"
         inkscape:connector-curvature="0" />
      <path
         style="fill:none;stroke:#0000ff;stroke-width:0.09;stroke-miterlimit:4;stroke-opacity:1;stroke-dasharray:none"
         d="m 637.28319,-506.46654 c 0,-3.63172 -0.71532,-7.22787 -2.10512,-10.58314 l -6.38749,2.64579 c 1.04234,2.51645 1.57884,5.21356 1.57884,7.93735 z"
         id="path4207"
         inkscape:connector-curvature="0"
         sodipodi:nodetypes="ccccc"
         inkscape:transform-center-x="-23.408778"
         inkscape:transform-center-y="-5.2915686" />
      <path
         inkscape:transform-center-y="-13.746224"
         inkscape:transform-center-x="-20.108143"
         sodipodi:nodetypes="ccccc"
         inkscape:connector-curvature="0"
         id="path4209"
         d="m 635.17807,-517.04968 c -1.3898,-3.35527 -3.42685,-6.40394 -5.99487,-8.97195 l -4.88877,4.88877 c 1.926,1.92601 3.4538,4.21251 4.49615,6.72896 z"
         style="fill:none;stroke:#0000ff;stroke-width:0.09;stroke-miterlimit:4;stroke-opacity:1;stroke-dasharray:none" />
      <path
         style="fill:none;stroke:#0000ff;stroke-width:0.09;stroke-miterlimit:4;stroke-opacity:1;stroke-dasharray:none"
         d="m 620.21125,-532.0165 c -3.35527,-1.3898 -6.95142,-2.10512 -10.58314,-2.10512 l 0,6.91377 c 2.72378,0 5.4209,0.53649 7.93735,1.57883 z"
         id="path4211"
         inkscape:connector-curvature="0"
         sodipodi:nodetypes="ccccc"
         inkscape:transform-center-x="-5.291573"
         inkscape:transform-center-y="-23.408779" />
      <path
         style="fill:none;stroke:#0000ff;stroke-width:0.09;stroke-miterlimit:4;stroke-opacity:1;stroke-dasharray:none"
         d="m 629.1832,-526.02163 c -2.56801,-2.56802 -5.61668,-4.60507 -8.97195,-5.99487 l -2.64578,6.38749 c 2.51644,1.04235 4.80295,2.57014 6.72896,4.49614 z"
         id="path4213"
         inkscape:connector-curvature="0"
         sodipodi:nodetypes="ccccc"
         inkscape:transform-center-x="-13.746228"
         inkscape:transform-center-y="-20.108144" />
      <path
         sodipodi:type="arc"
         style="fill:none;stroke:#0000ff;stroke-width:0.12;stroke-miterlimit:4;stroke-opacity:1;stroke-dasharray:none"
         id="path4215"
         sodipodi:cx="217.91339"
         sodipodi:cy="57.401573"
         sodipodi:rx="14.173228"
         sodipodi:ry="14.173228"
         d="m 232.08662,57.401573 c 0,7.827658 -6.34557,14.173228 -14.17323,14.173228 -7.82766,0 -14.17323,-6.34557 -14.17323,-14.173228 0,-7.827658 6.34557,-14.173228 14.17323,-14.173228 7.82766,0 14.17323,6.34557 14.17323,14.173228 z"
         transform="matrix(0.75,0,0,0.75,446.19307,-549.51772)" />
    </g>
  </g>
</svg>
