<?xml version="1.0" encoding="UTF-8" standalone="no"?>
<!-- Created with Inkscape (http://www.inkscape.org/) -->

<svg
   xmlns:dc="http://purl.org/dc/elements/1.1/"
   xmlns:cc="http://creativecommons.org/ns#"
   xmlns:rdf="http://www.w3.org/1999/02/22-rdf-syntax-ns#"
   xmlns:svg="http://www.w3.org/2000/svg"
   xmlns="http://www.w3.org/2000/svg"
   xmlns:sodipodi="http://sodipodi.sourceforge.net/DTD/sodipodi-0.dtd"
   xmlns:inkscape="http://www.inkscape.org/namespaces/inkscape"
   width="2160"
   height="1620"
   id="svg3914"
   version="1.1"
   inkscape:version="0.48.2 r9819"
   sodipodi:docname="vpg_box.svg">
  <defs
     id="defs3916" />
  <sodipodi:namedview
     id="base"
     pagecolor="#ffffff"
     bordercolor="#666666"
     borderopacity="1.0"
     inkscape:pageopacity="0.0"
     inkscape:pageshadow="2"
     inkscape:zoom="0.35"
     inkscape:cx="293.53783"
     inkscape:cy="1047.8045"
     inkscape:document-units="mm"
     inkscape:current-layer="layer1"
     showgrid="true"
     units="mm"
     inkscape:window-width="1440"
     inkscape:window-height="853"
     inkscape:window-x="-4"
     inkscape:window-y="-4"
     inkscape:window-maximized="1">
    <inkscape:grid
       type="xygrid"
       id="grid3922"
       empspacing="4"
       visible="true"
       enabled="true"
       snapvisiblegridlinesonly="true"
       units="mm"
       spacingx="0.5mm"
       spacingy="0.5mm" />
  </sodipodi:namedview>
  <metadata
     id="metadata3919">
    <rdf:RDF>
      <cc:Work
         rdf:about="">
        <dc:format>image/svg+xml</dc:format>
        <dc:type
           rdf:resource="http://purl.org/dc/dcmitype/StillImage" />
        <dc:title></dc:title>
      </cc:Work>
    </rdf:RDF>
  </metadata>
  <g
     inkscape:label="Layer 1"
     inkscape:groupmode="layer"
     id="layer1"
     transform="translate(0,567.64025)">
    <path
       id="path6938"
       style="fill:none;stroke:#000000;stroke-width:1.80000007;stroke-miterlimit:4;stroke-opacity:1;stroke-dasharray:none"
       d="m 1956.8197,730.7692 0,-54 m 20.7,54 -20.7,0 m 20.7,54 0,-54 m 0,54 -20.7,0 m 0,54 0,-54 m 20.7,54 -20.7,0 m 20.7,54 0,-54 m 0,54 -20.7,0 m 0,54 0,-54 m -1014.30001,-162 0,-54 m 20.7,54 -20.7,0 m 20.7,54 0,-54 m 0,54 -20.7,0 m 0,54 0,-54 m 20.7,54 -20.7,0 m 20.7,54 0,-54 m 0,54 -20.7,0 m 0,54 0,-54 m 980.52501,-216 33.775,0 m -33.775,0 0,20.7 m -54.4625,0 54.4625,0 m -54.4625,-20.7 0,20.7 m -54.475,-20.7 54.475,0 m -54.475,0 0,20.7 m -54.475,0 54.475,0 m -54.475,-20.7 0,20.7 m -54.475,-20.7 54.475,0 m -54.475,0 0,20.7 m -54.475,0 54.475,0 m -54.475,-20.7 0,20.7 m -54.475,-20.7 54.475,0 m -54.475,0 0,20.7 m -54.475,0 54.475,0 m -54.475,-20.7 0,20.7 m -54.475,-20.7 54.475,0 m -54.475,0 0,20.7 m -54.475,0 54.475,0 m -54.475,-20.7 0,20.7 m -54.475,-20.7 54.475,0 m -54.475,0 0,20.7 m -54.4625,0 54.4625,0 m -54.4625,-20.7 0,20.7 m -54.475,-20.7 54.475,0 m -54.475,0 0,20.7 m -54.475,0 54.475,0 m -54.475,-20.7 0,20.7 m -54.475,-20.7 54.475,0 m -54.475,0 0,20.7 m -54.475,0 54.475,0 m -54.475,-20.7 0,20.7 m -54.475,-20.7 54.475,0 m -54.475,0 0,20.7 m -54.47501,0 54.47501,0 m -54.47501,-20.7 0,20.7 m -54.475,-20.7 54.475,0 m 926.05001,270 33.775,0 m -33.775,-20.7 0,20.7 m -54.4625,-20.7 54.4625,0 m -54.4625,0 0,20.7 m -54.475,0 54.475,0 m -54.475,-20.7 0,20.7 m -54.475,-20.7 54.475,0 m -54.475,0 0,20.7 m -54.475,0 54.475,0 m -54.475,-20.7 0,20.7 m -54.475,-20.7 54.475,0 m -54.475,0 0,20.7 m -54.475,0 54.475,0 m -54.475,-20.7 0,20.7 m -54.475,-20.7 54.475,0 m -54.475,0 0,20.7 m -54.475,0 54.475,0 m -54.475,-20.7 0,20.7 m -54.475,-20.7 54.475,0 m -54.475,0 0,20.7 m -54.475,0 54.475,0 m -54.475,-20.7 0,20.7 m -54.4625,-20.7 54.4625,0 m -54.4625,0 0,20.7 m -54.475,0 54.475,0 m -54.475,-20.7 0,20.7 m -54.475,-20.7 54.475,0 m -54.475,0 0,20.7 m -54.475,0 54.475,0 m -54.475,-20.7 0,20.7 m -54.475,-20.7 54.475,0 m -54.475,0 0,20.7 m -54.475,0 54.475,0 m -54.475,-20.7 0,20.7 m -54.47501,-20.7 54.47501,0 m -54.47501,0 0,20.7 m -54.475,0 54.475,0"
       inkscape:connector-curvature="0" />
    <path
       id="path7106"
       style="fill:none;stroke:#000000;stroke-width:1.80000007;stroke-miterlimit:4;stroke-opacity:1;stroke-dasharray:none"
       d="m 900.55985,730.7692 0,-54 m 20.7,54 -20.7,0 m 20.7,54 0,-54 m 0,54 -20.7,0 m 0,54 0,-54 m 20.7,54 -20.7,0 m 20.7,54 0,-54 m 0,54 -20.7,0 m 0,54 0,-54 m -879.300007,-162 0,-54 m 20.7,54 -20.7,0 m 20.7,54 0,-54 m 0,54 -20.7,0 m 0,54 0,-54 m 20.7,54 -20.7,0 m 20.7,54 0,-54 m 0,54 -20.7,0 m 0,54 0,-54 m 847.050007,-216 32.25,0 m -32.25,0 0,20.7 m -52.9375,0 52.9375,0 m -52.9375,-20.7 0,20.7 m -52.9375,-20.7 52.9375,0 m -52.9375,0 0,20.7 m -52.95,0 52.95,0 m -52.95,-20.7 0,20.7 m -52.9375,-20.7 52.9375,0 m -52.9375,0 0,20.7 m -52.9375,0 52.9375,0 m -52.9375,-20.7 0,20.7 m -52.9375,-20.7 52.9375,0 m -52.9375,0 0,20.7 m -52.95,0 52.95,0 m -52.95,-20.7 0,20.7 m -52.9375,-20.7 52.9375,0 m -52.9375,0 0,20.7 m -52.9375,0 52.9375,0 m -52.9375,-20.7 0,20.7 m -52.95,-20.7 52.95,0 m -52.95,0 0,20.7 m -52.9375,0 52.9375,0 m -52.9375,-20.7 0,20.7 m -52.9375,-20.7 52.9375,0 m -52.9375,0 0,20.7 m -52.9375,0 52.9375,0 m -52.9375,-20.7 0,20.7 m -52.95,-20.7 52.95,0 m -52.95,0 0,20.7 m -52.937507,0 52.937507,0 m -52.937507,-20.7 0,20.7 m -52.9375,-20.7 52.9375,0 m 794.112507,270 32.25,0 m -32.25,-20.7 0,20.7 m -52.9375,-20.7 52.9375,0 m -52.9375,0 0,20.7 m -52.9375,0 52.9375,0 m -52.9375,-20.7 0,20.7 m -52.95,-20.7 52.95,0 m -52.95,0 0,20.7 m -52.9375,0 52.9375,0 m -52.9375,-20.7 0,20.7 m -52.9375,-20.7 52.9375,0 m -52.9375,0 0,20.7 m -52.9375,0 52.9375,0 m -52.9375,-20.7 0,20.7 m -52.95,-20.7 52.95,0 m -52.95,0 0,20.7 m -52.9375,0 52.9375,0 m -52.9375,-20.7 0,20.7 m -52.9375,-20.7 52.9375,0 m -52.9375,0 0,20.7 m -52.95,0 52.95,0 m -52.95,-20.7 0,20.7 m -52.9375,-20.7 52.9375,0 m -52.9375,0 0,20.7 m -52.9375,0 52.9375,0 m -52.9375,-20.7 0,20.7 m -52.9375,-20.7 52.9375,0 m -52.9375,0 0,20.7 m -52.95,0 52.95,0 m -52.95,-20.7 0,20.7 m -52.937507,-20.7 52.937507,0 m -52.937507,0 0,20.7 m -52.9375,0 52.9375,0"
       inkscape:connector-curvature="0" />
    <path
       id="path7386"
       style="fill:none;stroke:#000000;stroke-width:1.80000007;stroke-miterlimit:4;stroke-opacity:1;stroke-dasharray:none"
       d="m 2091.4654,-503.36417 0,-32.2375 m 20.7,32.2375 -20.7,0 m 20.7,52.9375 0,-52.9375 m 0,52.9375 -20.7,0 m 0,52.95 0,-52.95 m 20.7,52.95 -20.7,0 m 20.7,52.9375 0,-52.9375 m 0,52.9375 -20.7,0 m 0,52.9375 0,-52.9375 m 20.7,52.9375 -20.7,0 m 20.7,52.9375 0,-52.9375 m 0,52.9375 -20.7,0 m 0,52.95 0,-52.95 m 20.7,52.95 -20.7,0 m 20.7,52.9375 0,-52.9375 m 0,52.9375 -20.7,0 m 0,52.937498 0,-52.937498 m 20.7,52.937498 -20.7,0 m 20.7,52.95 0,-52.95 m 0,52.95 -20.7,0 m 0,52.9375 0,-52.9375 m 20.7,52.9375 -20.7,0 m 20.7,52.937505 0,-52.937505 m 0,52.937505 -20.7,0 m 0,52.949997 0,-52.949997 m 20.7,52.949997 -20.7,0 m 20.7,52.9375 0,-52.9375 m 0,52.9375 -20.7,0 m 0,52.9375 0,-52.9375 m 20.7,52.9375 -20.7,0 m 20.7,52.9375 0,-52.9375 m 0,52.9375 -20.7,0 m 0,32.25 0,-32.25 m -993.6,-794.1125 0,-32.2375 m 0,32.2375 -20.7,0 m 0,52.9375 0,-52.9375 m 20.7,52.9375 -20.7,0 m 20.7,52.95 0,-52.95 m 0,52.95 -20.7,0 m 0,52.9375 0,-52.9375 m 20.7,52.9375 -20.7,0 m 20.7,52.9375 0,-52.9375 m 0,52.9375 -20.7,0 m 0,52.9375 0,-52.9375 m 20.7,52.9375 -20.7,0 m 20.7,52.95 0,-52.95 m 0,52.95 -20.7,0 m 0,52.9375 0,-52.9375 m 20.7,52.9375 -20.7,0 m 20.7,52.937498 0,-52.937498 m 0,52.937498 -20.7,0 m 0,52.95 0,-52.95 m 20.7,52.95 -20.7,0 m 20.7,52.9375 0,-52.9375 m 0,52.9375 -20.7,0 m 0,52.937505 0,-52.937505 m 20.7,52.937505 -20.7,0 m 20.7,52.949997 0,-52.949997 m 0,52.949997 -20.7,0 m 0,52.9375 0,-52.9375 m 20.7,52.9375 -20.7,0 m 20.7,52.9375 0,-52.9375 m 0,52.9375 -20.7,0 m 0,52.9375 0,-52.9375 m 20.7,52.9375 -20.7,0 m 20.7,32.25 0,-32.25 m 959.825,-826.35 33.775,0 m -33.775,-20.7 0,20.7 m -54.4625,-20.7 54.4625,0 m -54.4625,0 0,20.7 m -54.475,0 54.475,0 m -54.475,-20.7 0,20.7 m -54.475,-20.7 54.475,0 m -54.475,0 0,20.7 m -54.475,0 54.475,0 m -54.475,-20.7 0,20.7 m -54.475,-20.7 54.475,0 m -54.475,0 0,20.7 m -54.475,0 54.475,0 m -54.475,-20.7 0,20.7 m -54.475,-20.7 54.475,0 m -54.475,0 0,20.7 m -54.475,0 54.475,0 m -54.475,-20.7 0,20.7 m -54.475,-20.7 54.475,0 m -54.475,0 0,20.7 m -54.475,0 54.475,0 m -54.475,-20.7 0,20.7 m -54.4625,-20.7 54.4625,0 m -54.4625,0 0,20.7 m -54.475,0 54.475,0 m -54.475,-20.7 0,20.7 m -54.475,-20.7 54.475,0 m -54.475,0 0,20.7 m -54.475,0 54.475,0 m -54.475,-20.7 0,20.7 m -54.475,-20.7 54.475,0 m -54.475,0 0,20.7 m -54.475,0 54.475,0 m -54.475,-20.7 0,20.7 m -54.475,-20.7 54.475,0 m -54.475,0 0,20.7 m -33.775,0 33.775,0 m 926.05,858.6 33.775,0 m -33.775,0 0,20.7 m -54.4625,0 54.4625,0 m -54.4625,-20.7 0,20.7 m -54.475,-20.7 54.475,0 m -54.475,0 0,20.7 m -54.475,0 54.475,0 m -54.475,-20.7 0,20.7 m -54.475,-20.7 54.475,0 m -54.475,0 0,20.7 m -54.475,0 54.475,0 m -54.475,-20.7 0,20.7 m -54.475,-20.7 54.475,0 m -54.475,0 0,20.7 m -54.475,0 54.475,0 m -54.475,-20.7 0,20.7 m -54.475,-20.7 54.475,0 m -54.475,0 0,20.7 m -54.475,0 54.475,0 m -54.475,-20.7 0,20.7 m -54.475,-20.7 54.475,0 m -54.475,0 0,20.7 m -54.4625,0 54.4625,0 m -54.4625,-20.7 0,20.7 m -54.475,-20.7 54.475,0 m -54.475,0 0,20.7 m -54.475,0 54.475,0 m -54.475,-20.7 0,20.7 m -54.475,-20.7 54.475,0 m -54.475,0 0,20.7 m -54.475,0 54.475,0 m -54.475,-20.7 0,20.7 m -54.475,-20.7 54.475,0 m -54.475,0 0,20.7 m -54.475,0 54.475,0 m -54.475,-20.7 0,20.7 m -33.775,-20.7 33.775,0"
       inkscape:connector-curvature="0" />
    <path
       id="path7554"
       style="fill:none;stroke:#000000;stroke-width:1.80000007;stroke-miterlimit:4;stroke-opacity:1;stroke-dasharray:none"
       d="m 1956.4654,433.1314 0,-54 m 20.7,54 -20.7,0 m 20.7,54 0,-54 m 0,54 -20.7,0 m 0,54 0,-54 m 20.7,54 -20.7,0 m 20.7,54 0,-54 m 0,54 -20.7,0 m 0,54 0,-54 m -879.3,-162 0,-54 m 20.7,54 -20.7,0 m 20.7,54 0,-54 m 0,54 -20.7,0 m 0,54 0,-54 m 20.7,54 -20.7,0 m 20.7,54 0,-54 m 0,54 -20.7,0 m 0,54 0,-54 m 847.0625,-216 32.2375,0 m -32.2375,0 0,20.7 m -52.95,0 52.95,0 m -52.95,-20.7 0,20.7 m -52.9375,-20.7 52.9375,0 m -52.9375,0 0,20.7 m -52.9375,0 52.9375,0 m -52.9375,-20.7 0,20.7 m -52.95,-20.7 52.95,0 m -52.95,0 0,20.7 m -52.9375,0 52.9375,0 m -52.9375,-20.7 0,20.7 m -52.9375,-20.7 52.9375,0 m -52.9375,0 0,20.7 m -52.9375,0 52.9375,0 m -52.9375,-20.7 0,20.7 m -52.95,-20.7 52.95,0 m -52.95,0 0,20.7 m -52.9375,0 52.9375,0 m -52.9375,-20.7 0,20.7 m -52.9375,-20.7 52.9375,0 m -52.9375,0 0,20.7 m -52.95,0 52.95,0 m -52.95,-20.7 0,20.7 m -52.9375,-20.7 52.9375,0 m -52.9375,0 0,20.7 m -52.9375,0 52.9375,0 m -52.9375,-20.7 0,20.7 m -52.9375,-20.7 52.9375,0 m -52.9375,0 0,20.7 m -52.95,0 52.95,0 m -52.95,-20.7 0,20.7 m -52.9375,-20.7 52.9375,0 m 794.125,270 32.2375,0 m -32.2375,-20.7 0,20.7 m -52.95,-20.7 52.95,0 m -52.95,0 0,20.7 m -52.9375,0 52.9375,0 m -52.9375,-20.7 0,20.7 m -52.9375,-20.7 52.9375,0 m -52.9375,0 0,20.7 m -52.95,0 52.95,0 m -52.95,-20.7 0,20.7 m -52.9375,-20.7 52.9375,0 m -52.9375,0 0,20.7 m -52.9375,0 52.9375,0 m -52.9375,-20.7 0,20.7 m -52.9375,-20.7 52.9375,0 m -52.9375,0 0,20.7 m -52.95,0 52.95,0 m -52.95,-20.7 0,20.7 m -52.9375,-20.7 52.9375,0 m -52.9375,0 0,20.7 m -52.9375,0 52.9375,0 m -52.9375,-20.7 0,20.7 m -52.95,-20.7 52.95,0 m -52.95,0 0,20.7 m -52.9375,0 52.9375,0 m -52.9375,-20.7 0,20.7 m -52.9375,-20.7 52.9375,0 m -52.9375,0 0,20.7 m -52.9375,0 52.9375,0 m -52.9375,-20.7 0,20.7 m -52.95,-20.7 52.95,0 m -52.95,0 0,20.7 m -52.9375,0 52.9375,0"
       inkscape:connector-curvature="0" />
    <path
       id="path7738"
       style="fill:none;stroke:#000000;stroke-width:1.80000007;stroke-miterlimit:4;stroke-opacity:1;stroke-dasharray:none"
       d="m 1035.5599,433.1314 0,-54 m 20.7,54 -20.7,0 m 20.7,54 0,-54 m 0,54 -20.7,0 m 0,54 0,-54 m 20.7,54 -20.7,0 m 20.7,54 0,-54 m 0,54 -20.7,0 m 0,54 0,-54 m -1014.300057,-162 0,-54 m 20.7,54 -20.7,0 m 20.7,54 0,-54 m 0,54 -20.7,0 m 0,54 0,-54 m 20.7,54 -20.7,0 m 20.7,54 0,-54 m 0,54 -20.7,0 m 0,54 0,-54 m 980.525057,-216 33.775,0 m -33.775,0 0,20.7 m -54.46252,0 54.46252,0 m -54.46252,-20.7 0,20.7 m -54.475,-20.7 54.475,0 m -54.475,0 0,20.7 m -54.475,0 54.475,0 m -54.475,-20.7 0,20.7 m -54.475,-20.7 54.475,0 m -54.475,0 0,20.7 m -54.475,0 54.475,0 m -54.475,-20.7 0,20.7 m -54.475,-20.7 54.475,0 m -54.475,0 0,20.7 m -54.475,0 54.475,0 m -54.475,-20.7 0,20.7 m -54.47504,-20.7 54.47504,0 m -54.47504,0 0,20.7 m -54.475,0 54.475,0 m -54.475,-20.7 0,20.7 m -54.475,-20.7 54.475,0 m -54.475,0 0,20.7 m -54.4625,0 54.4625,0 m -54.4625,-20.7 0,20.7 m -54.475,-20.7 54.475,0 m -54.475,0 0,20.7 m -54.475,0 54.475,0 m -54.475,-20.7 0,20.7 m -54.475,-20.7 54.475,0 m -54.475,0 0,20.7 m -54.475,0 54.475,0 m -54.475,-20.7 0,20.7 m -54.475,-20.7 54.475,0 m -54.475,0 0,20.7 m -54.475001,0 54.475001,0 m -54.475001,-20.7 0,20.7 m -54.474996,-20.7 54.474996,0 m 926.050061,270 33.775,0 m -33.775,-20.7 0,20.7 m -54.46252,-20.7 54.46252,0 m -54.46252,0 0,20.7 m -54.475,0 54.475,0 m -54.475,-20.7 0,20.7 m -54.475,-20.7 54.475,0 m -54.475,0 0,20.7 m -54.475,0 54.475,0 m -54.475,-20.7 0,20.7 m -54.475,-20.7 54.475,0 m -54.475,0 0,20.7 m -54.475,0 54.475,0 m -54.475,-20.7 0,20.7 m -54.475,-20.7 54.475,0 m -54.475,0 0,20.7 m -54.47504,0 54.47504,0 m -54.47504,-20.7 0,20.7 m -54.475,-20.7 54.475,0 m -54.475,0 0,20.7 m -54.475,0 54.475,0 m -54.475,-20.7 0,20.7 m -54.4625,-20.7 54.4625,0 m -54.4625,0 0,20.7 m -54.475,0 54.475,0 m -54.475,-20.7 0,20.7 m -54.475,-20.7 54.475,0 m -54.475,0 0,20.7 m -54.475,0 54.475,0 m -54.475,-20.7 0,20.7 m -54.475,-20.7 54.475,0 m -54.475,0 0,20.7 m -54.475,0 54.475,0 m -54.475,-20.7 0,20.7 m -54.475001,-20.7 54.475001,0 m -54.475001,0 0,20.7 m -54.474996,0 54.474996,0"
       inkscape:connector-curvature="0" />
    <path
       id="path8018"
       style="fill:none;stroke:#000000;stroke-width:1.80000007;stroke-miterlimit:4;stroke-opacity:1;stroke-dasharray:none"
       d="m 1028.4733,-503.35167 0,-32.25 m 20.7,32.25 -20.7,0 m 20.7,52.9375 0,-52.9375 m 0,52.9375 -20.7,0 m 0,52.9375 0,-52.9375 m 20.7,52.9375 -20.7,0 m 20.7,52.95 0,-52.95 m 0,52.95 -20.7,0 m 0,52.9375 0,-52.9375 m 20.7,52.9375 -20.7,0 m 20.7,52.9375 0,-52.9375 m 0,52.9375 -20.7,0 m 0,52.95 0,-52.95 m 20.7,52.95 -20.7,0 m 20.7,52.9375 0,-52.9375 m 0,52.9375 -20.7,0 m 0,52.937498 0,-52.937498 m 20.7,52.937498 -20.7,0 m 20.7,52.9375 0,-52.9375 m 0,52.9375 -20.7,0 m 0,52.95 0,-52.95 m 20.7,52.95 -20.7,0 m 20.7,52.937505 0,-52.937505 m 0,52.937505 -20.7,0 m 0,52.937497 0,-52.937497 m 20.7,52.937497 -20.7,0 m 20.7,52.95 0,-52.95 m 0,52.95 -20.7,0 m 0,52.9375 0,-52.9375 m 20.7,52.9375 -20.7,0 m 20.7,52.9375 0,-52.9375 m 0,52.9375 -20.7,0 m 0,32.2375 0,-32.2375 m -993.600072,-794.1125 0,-32.25 m 0,32.25 -20.7,0 m 0,52.9375 0,-52.9375 m 20.7,52.9375 -20.7,0 m 20.7,52.9375 0,-52.9375 m 0,52.9375 -20.7,0 m 0,52.95 0,-52.95 m 20.7,52.95 -20.7,0 m 20.7,52.9375 0,-52.9375 m 0,52.9375 -20.7,0 m 0,52.9375 0,-52.9375 m 20.7,52.9375 -20.7,0 m 20.7,52.95 0,-52.95 m 0,52.95 -20.7,0 m 0,52.9375 0,-52.9375 m 20.7,52.9375 -20.7,0 m 20.7,52.937498 0,-52.937498 m 0,52.937498 -20.7,0 m 0,52.9375 0,-52.9375 m 20.7,52.9375 -20.7,0 m 20.7,52.95 0,-52.95 m 0,52.95 -20.7,0 m 0,52.937505 0,-52.937505 m 20.7,52.937505 -20.7,0 m 20.7,52.937497 0,-52.937497 m 0,52.937497 -20.7,0 m 0,52.95 0,-52.95 m 20.7,52.95 -20.7,0 m 20.7,52.9375 0,-52.9375 m 0,52.9375 -20.7,0 m 0,52.9375 0,-52.9375 m 20.7,52.9375 -20.7,0 m 20.7,32.2375 0,-32.2375 m 959.825092,-826.3625 33.77498,0 m -33.77498,-20.7 0,20.7 m -54.46255,-20.7 54.46255,0 m -54.46255,0 0,20.7 m -54.475,0 54.475,0 m -54.475,-20.7 0,20.7 m -54.475,-20.7 54.475,0 m -54.475,0 0,20.7 m -54.475,0 54.475,0 m -54.475,-20.7 0,20.7 m -54.475,-20.7 54.475,0 m -54.475,0 0,20.7 m -54.475,0 54.475,0 m -54.475,-20.7 0,20.7 m -54.475,-20.7 54.475,0 m -54.475,0 0,20.7 m -54.47504,0 54.47504,0 m -54.47504,-20.7 0,20.7 m -54.475,-20.7 54.475,0 m -54.475,0 0,20.7 m -54.475,0 54.475,0 m -54.475,-20.7 0,20.7 m -54.4625,-20.7 54.4625,0 m -54.4625,0 0,20.7 m -54.475,0 54.475,0 m -54.475,-20.7 0,20.7 m -54.475,-20.7 54.475,0 m -54.475,0 0,20.7 m -54.475,0 54.475,0 m -54.475,-20.7 0,20.7 m -54.475,-20.7 54.475,0 m -54.475,0 0,20.7 m -54.475,0 54.475,0 m -54.475,-20.7 0,20.7 m -54.475005,-20.7 54.475005,0 m -54.475005,0 0,20.7 m -33.774997,0 33.774997,0 m 926.050095,858.6 33.77498,0 m -33.77498,0 0,20.7 m -54.46255,0 54.46255,0 m -54.46255,-20.7 0,20.7 m -54.475,-20.7 54.475,0 m -54.475,0 0,20.7 m -54.475,0 54.475,0 m -54.475,-20.7 0,20.7 m -54.475,-20.7 54.475,0 m -54.475,0 0,20.7 m -54.475,0 54.475,0 m -54.475,-20.7 0,20.7 m -54.475,-20.7 54.475,0 m -54.475,0 0,20.7 m -54.475,0 54.475,0 m -54.475,-20.7 0,20.7 m -54.47504,-20.7 54.47504,0 m -54.47504,0 0,20.7 m -54.475,0 54.475,0 m -54.475,-20.7 0,20.7 m -54.475,-20.7 54.475,0 m -54.475,0 0,20.7 m -54.4625,0 54.4625,0 m -54.4625,-20.7 0,20.7 m -54.475,-20.7 54.475,0 m -54.475,0 0,20.7 m -54.475,0 54.475,0 m -54.475,-20.7 0,20.7 m -54.475,-20.7 54.475,0 m -54.475,0 0,20.7 m -54.475,0 54.475,0 m -54.475,-20.7 0,20.7 m -54.475,-20.7 54.475,0 m -54.475,0 0,20.7 m -54.475005,0 54.475005,0 m -54.475005,-20.7 0,20.7 m -33.774997,-20.7 33.774997,0"
       inkscape:connector-curvature="0" />
    <g
       id="g43358"
       transform="matrix(0,1.25,1.25,0,-47.727336,-157.50528)">
      <path
         d="M 262.10981,281.81588 L 113.06567,281.81588"
         style="fill:none;stroke:#ff0000;stroke-width:0.27820799;stroke-linecap:round;stroke-linejoin:round;stroke-miterlimit:10;stroke-opacity:1;stroke-dasharray:none"
         id="path14"
         inkscape:connector-curvature="0" />
      <path
         inkscape:connector-curvature="0"
         id="path18"
         style="fill:none;stroke:#ff0000;stroke-width:0.27820799;stroke-linecap:round;stroke-linejoin:round;stroke-miterlimit:10;stroke-opacity:1;stroke-dasharray:none"
         d="M 262.10981,637.19762 L 262.10981,281.81588" />
      <g
         style="fill:none;stroke:#ff0000;stroke-width:0.57599998;stroke-miterlimit:10;stroke-opacity:1;stroke-dasharray:none"
         transform="matrix(0.483,0,0,0.483,113.06567,281.81588)"
         id="g20">
        <path
           inkscape:connector-curvature="0"
           id="path22"
           style="fill:none;stroke:#ff0000;stroke-width:0.57599998;stroke-linecap:round;stroke-linejoin:round;stroke-miterlimit:10;stroke-opacity:1;stroke-dasharray:none"
           d="M 0,0 L 308.58,0" />
        <g
           style="fill:none;stroke:#ff0000;stroke-width:0.57599998;stroke-miterlimit:10;stroke-opacity:1;stroke-dasharray:none"
           transform="translate(308.58,735.78)"
           id="g24">
          <path
             inkscape:connector-curvature="0"
             id="path26"
             style="fill:none;stroke:#ff0000;stroke-width:0.57599998;stroke-linecap:round;stroke-linejoin:round;stroke-miterlimit:10;stroke-opacity:1;stroke-dasharray:none"
             d="M 0,0 L 0,-735.78" />
          <g
             style="fill:none;stroke:#ff0000;stroke-width:0.57599998;stroke-miterlimit:10;stroke-opacity:1;stroke-dasharray:none"
             transform="translate(-308.58,-735.78)"
             id="g28">
            <path
               inkscape:connector-curvature="0"
               id="path30"
               style="fill:none;stroke:#ff0000;stroke-width:0.57599998;stroke-linecap:round;stroke-linejoin:round;stroke-miterlimit:10;stroke-opacity:1;stroke-dasharray:none"
               d="M 0,0 L 0,733.26 L 0,0" />
            <g
               style="fill:none;stroke:#ff0000;stroke-width:0.57599998;stroke-miterlimit:10;stroke-opacity:1;stroke-dasharray:none"
               transform="translate(104.1,688.26)"
               id="g32">
              <path
                 inkscape:connector-curvature="0"
                 id="path34"
                 style="fill:none;stroke:#ff0000;stroke-width:0.57599998;stroke-linecap:round;stroke-linejoin:round;stroke-miterlimit:10;stroke-opacity:1;stroke-dasharray:none"
                 d="M 0,0 L 0,45" />
              <g
                 style="fill:none;stroke:#ff0000;stroke-width:0.57599998;stroke-miterlimit:10;stroke-opacity:1;stroke-dasharray:none"
                 transform="translate(-81.18,0)"
                 id="g36">
                <path
                   inkscape:connector-curvature="0"
                   id="path38"
                   style="fill:none;stroke:#ff0000;stroke-width:0.57599998;stroke-linecap:round;stroke-linejoin:round;stroke-miterlimit:10;stroke-opacity:1;stroke-dasharray:none"
                   d="M 0,0 L 81.18,0 L 0,0" />
                <g
                   style="fill:none;stroke:#ff0000;stroke-width:0.57599998;stroke-miterlimit:10;stroke-opacity:1;stroke-dasharray:none"
                   transform="translate(81.18,0)"
                   id="g40">
                  <path
                     inkscape:connector-curvature="0"
                     id="path42"
                     style="fill:none;stroke:#ff0000;stroke-width:0.57599998;stroke-linecap:round;stroke-linejoin:round;stroke-miterlimit:10;stroke-opacity:1;stroke-dasharray:none"
                     d="M 0,0 L 0,45" />
                  <g
                     style="fill:none;stroke:#ff0000;stroke-width:0.57599998;stroke-miterlimit:10;stroke-opacity:1;stroke-dasharray:none"
                     transform="translate(-81.18,45)"
                     id="g44">
                    <path
                       inkscape:connector-curvature="0"
                       id="path46"
                       style="fill:none;stroke:#ff0000;stroke-width:0.57599998;stroke-linecap:round;stroke-linejoin:round;stroke-miterlimit:10;stroke-opacity:1;stroke-dasharray:none"
                       d="M 0,0 L 0,-45 L 0,0" />
                    <g
                       style="fill:none;stroke:#ff0000;stroke-width:0.57599998;stroke-miterlimit:10;stroke-opacity:1;stroke-dasharray:none"
                       transform="translate(100.02,2.52)"
                       id="g48">
                      <path
                         inkscape:connector-curvature="0"
                         id="path50"
                         style="fill:none;stroke:#ff0000;stroke-width:0.57599998;stroke-linecap:round;stroke-linejoin:round;stroke-miterlimit:10;stroke-opacity:1;stroke-dasharray:none"
                         d="M 0,0 L 185.64,0" />
                      <g
                         style="fill:none;stroke:#ff0000;stroke-width:0.57599998;stroke-miterlimit:10;stroke-opacity:1;stroke-dasharray:none"
                         id="g52">
                        <path
                           inkscape:connector-curvature="0"
                           id="path54"
                           style="fill:none;stroke:#ff0000;stroke-width:0.57599998;stroke-linecap:round;stroke-linejoin:round;stroke-miterlimit:10;stroke-opacity:1;stroke-dasharray:none"
                           d="M 0,0 L 185.64,0" />
                        <g
                           style="fill:none;stroke:#ff0000;stroke-width:0.57599998;stroke-miterlimit:10;stroke-opacity:1;stroke-dasharray:none"
                           transform="translate(0,-2.52)"
                           id="g56">
                          <path
                             inkscape:connector-curvature="0"
                             id="path58"
                             style="fill:none;stroke:#ff0000;stroke-width:0.57599998;stroke-linecap:round;stroke-linejoin:round;stroke-miterlimit:10;stroke-opacity:1;stroke-dasharray:none"
                             d="M 0,0 L 0,2.52" />
                          <g
                             style="fill:none;stroke:#ff0000;stroke-width:0.57599998;stroke-miterlimit:10;stroke-opacity:1;stroke-dasharray:none"
                             transform="translate(-18.84,0)"
                             id="g60">
                            <path
                               inkscape:connector-curvature="0"
                               id="path62"
                               style="fill:none;stroke:#ff0000;stroke-width:0.57599998;stroke-linecap:round;stroke-linejoin:round;stroke-miterlimit:10;stroke-opacity:1;stroke-dasharray:none"
                               d="M 0,0 L 18.84,0 L 18.84,2.52" />
                            <g
                               style="fill:none;stroke:#ff0000;stroke-width:0.57599998;stroke-miterlimit:10;stroke-opacity:1;stroke-dasharray:none"
                               id="g64">
                              <path
                                 inkscape:connector-curvature="0"
                                 id="path66"
                                 style="fill:none;stroke:#ff0000;stroke-width:0.57599998;stroke-linecap:round;stroke-linejoin:round;stroke-miterlimit:10;stroke-opacity:1;stroke-dasharray:none"
                                 d="M 0,0 L 18.84,0" />
                              <g
                                 style="fill:none;stroke:#ff0000;stroke-width:0.57599998;stroke-miterlimit:10;stroke-opacity:1;stroke-dasharray:none"
                                 transform="translate(-104.1,0)"
                                 id="g68">
                                <path
                                   inkscape:connector-curvature="0"
                                   id="path70"
                                   style="fill:none;stroke:#ff0000;stroke-width:0.57599998;stroke-linecap:round;stroke-linejoin:round;stroke-miterlimit:10;stroke-opacity:1;stroke-dasharray:none"
                                   d="M 0,0 L 22.92,0 L 0,0" />
                              </g>
                            </g>
                          </g>
                        </g>
                      </g>
                    </g>
                  </g>
                </g>
              </g>
            </g>
          </g>
        </g>
      </g>
      <path
         d="M 124.13603,614.24546 L 163.34597,614.24546 L 163.34597,635.98046"
         style="fill:none;stroke:#ff0000;stroke-width:0.27820799;stroke-linecap:round;stroke-linejoin:round;stroke-miterlimit:10;stroke-opacity:1;stroke-dasharray:none"
         id="path1230"
         inkscape:connector-curvature="0" />
      <g
         style="fill:none;stroke:#ff0000;stroke-width:0.57599998;stroke-miterlimit:10;stroke-opacity:1;stroke-dasharray:none"
         transform="matrix(0.483,0,0,0.483,124.13603,635.98046)"
         id="g1236">
        <path
           inkscape:connector-curvature="0"
           id="path1238"
           style="fill:none;stroke:#ff0000;stroke-width:0.57599998;stroke-linecap:round;stroke-linejoin:round;stroke-miterlimit:10;stroke-opacity:1;stroke-dasharray:none"
           d="M 0,0 L 0,-45" />
      </g>
      <path
         d="M 256.63259,644.52908 L 256.63259,635.16854"
         style="fill:none;stroke:#ff0000;stroke-width:0.27820799;stroke-linecap:round;stroke-linejoin:round;stroke-miterlimit:10;stroke-opacity:1;stroke-dasharray:none"
         id="path1242"
         inkscape:connector-curvature="0" />
      <path
         inkscape:connector-curvature="0"
         id="path1246"
         style="fill:none;stroke:#ff0000;stroke-width:0.27820799;stroke-linecap:round;stroke-linejoin:round;stroke-miterlimit:10;stroke-opacity:1;stroke-dasharray:none"
         d="M 216.29243,644.52908 L 256.63259,644.52908" />
      <g
         style="fill:none;stroke:#ff0000;stroke-width:0.57599998;stroke-miterlimit:10;stroke-opacity:1;stroke-dasharray:none"
         transform="matrix(0.483,0,0,0.483,216.29243,635.16854)"
         id="g1248">
        <path
           inkscape:connector-curvature="0"
           id="path1250"
           style="fill:none;stroke:#ff0000;stroke-width:0.57599998;stroke-linecap:round;stroke-linejoin:round;stroke-miterlimit:10;stroke-opacity:1;stroke-dasharray:none"
           d="M 0,0 L 0,19.38" />
      </g>
      <path
         d="M 172.44569,645.08018 L 114.86243,645.08018"
         style="fill:none;stroke:#ff0000;stroke-width:0.27820799;stroke-linecap:round;stroke-linejoin:round;stroke-miterlimit:10;stroke-opacity:1;stroke-dasharray:none"
         id="path1254"
         inkscape:connector-curvature="0" />
      <path
         inkscape:connector-curvature="0"
         id="path1258"
         style="fill:none;stroke:#ff0000;stroke-width:0.27820799;stroke-linecap:round;stroke-linejoin:round;stroke-miterlimit:10;stroke-opacity:1;stroke-dasharray:none"
         d="M 172.44569,635.98046 L 172.44569,645.08018" />
      <g
         style="fill:none;stroke:#ff0000;stroke-width:0.57599998;stroke-miterlimit:10;stroke-opacity:1;stroke-dasharray:none"
         transform="matrix(0.483,0,0,0.483,163.34597,635.98046)"
         id="g1260">
        <path
           inkscape:connector-curvature="0"
           id="path1262"
           style="fill:none;stroke:#ff0000;stroke-width:0.57599998;stroke-linecap:round;stroke-linejoin:round;stroke-miterlimit:10;stroke-opacity:1;stroke-dasharray:none"
           d="M 0,0 L 18.84,0" />
        <g
           style="fill:none;stroke:#ff0000;stroke-width:0.57599998;stroke-miterlimit:10;stroke-opacity:1;stroke-dasharray:none"
           transform="translate(-100.38,0)"
           id="g1264">
          <path
             inkscape:connector-curvature="0"
             id="path1266"
             style="fill:none;stroke:#ff0000;stroke-width:0.57599998;stroke-linecap:round;stroke-linejoin:round;stroke-miterlimit:10;stroke-opacity:1;stroke-dasharray:none"
             d="M 0,0 L 19.2,0" />
          <g
             style="fill:none;stroke:#ff0000;stroke-width:0.57599998;stroke-miterlimit:10;stroke-opacity:1;stroke-dasharray:none"
             transform="translate(-6.78,18.84)"
             id="g1268">
            <path
               inkscape:connector-curvature="0"
               id="path1270"
               style="fill:none;stroke:#ff0000;stroke-width:0.57599998;stroke-linecap:round;stroke-linejoin:round;stroke-miterlimit:10;stroke-opacity:1;stroke-dasharray:none"
               d="M 0,0 L 0,0.3" />
            <g
               style="fill:none;stroke:#ff0000;stroke-width:0.57599998;stroke-miterlimit:10;stroke-opacity:1;stroke-dasharray:none"
               transform="translate(6.78,0)"
               id="g1272">
              <path
                 inkscape:connector-curvature="0"
                 id="path1274"
                 style="fill:none;stroke:#ff0000;stroke-width:0.57599998;stroke-linecap:round;stroke-linejoin:round;stroke-miterlimit:10;stroke-opacity:1;stroke-dasharray:none"
                 d="M 0,0 L 0,-18.84" />
            </g>
          </g>
        </g>
      </g>
      <path
         inkscape:connector-curvature="0"
         id="path43348"
         style="fill:none;stroke:#000000;stroke-width:0.04798375;stroke-linecap:round;stroke-linejoin:round;stroke-miterlimit:10;stroke-opacity:1;stroke-dasharray:none;display:inline"
         d="M 241.30667,523.78663 C 239.36732,523.78663 237.80784,522.20716 237.80784,520.26782 C 237.80784,518.32848 239.36731,516.769 241.30667,516.769 C 243.24601,516.769 244.82547,518.32848 244.82547,520.26782 C 244.82547,522.20716 243.246,523.78663 241.30667,523.78663 z" />
      <path
         inkscape:connector-curvature="0"
         id="path43350"
         style="fill:none;stroke:#000000;stroke-width:0.04798375;stroke-linecap:round;stroke-linejoin:round;stroke-miterlimit:10;stroke-opacity:1;stroke-dasharray:none;display:inline"
         d="M 161.75657,523.78663 C 159.81722,523.78663 158.25775,522.20716 158.25775,520.26782 C 158.25775,518.32848 159.81721,516.769 161.75657,516.769 C 163.69591,516.769 165.27538,518.32848 165.27538,520.26782 C 165.27538,522.20716 163.6959,523.78663 161.75657,523.78663 z" />
      <path
         d="M 119.15597,379.46622 C 117.21662,379.46622 115.65715,377.88675 115.65715,375.94741 C 115.65715,374.00807 117.21662,372.44859 119.15597,372.44859 C 121.09531,372.44859 122.67478,374.00807 122.67478,375.94741 C 122.67478,377.88675 121.09531,379.46622 119.15597,379.46622 z"
         style="fill:none;stroke:#000000;stroke-width:0.04798375;stroke-linecap:round;stroke-linejoin:round;stroke-miterlimit:10;stroke-opacity:1;stroke-dasharray:none;display:inline"
         id="path43352"
         inkscape:connector-curvature="0" />
      <path
         d="M 255.53585,376.04658 C 253.5965,376.04658 252.03702,374.46711 252.03702,372.52777 C 252.03702,370.58843 253.59649,369.02895 255.53585,369.02895 C 257.47519,369.02895 259.05465,370.58843 259.05465,372.52777 C 259.05465,374.46711 257.47518,376.04658 255.53585,376.04658 z"
         style="fill:none;stroke:#000000;stroke-width:0.04798375;stroke-linecap:round;stroke-linejoin:round;stroke-miterlimit:10;stroke-opacity:1;stroke-dasharray:none;display:inline"
         id="path43354"
         inkscape:connector-curvature="0" />
    </g>
    <g
       id="g3447"
       transform="translate(55.572884,0)">
      <path
         inkscape:connector-curvature="0"
         id="path4262"
         style="fill:none;stroke:#000000;stroke-width:0.18000001;stroke-linecap:butt;stroke-linejoin:miter;stroke-miterlimit:4;stroke-opacity:1;stroke-dasharray:none"
         d="M 202.37991,276.25152 L 202.37991,269.02942 L 192.63583,269.02942 L 192.63583,278.77352 L 199.88919,278.77352 M 199.85789,294.7184 L 192.6358,294.7184 L 192.63579,304.4625 L 202.37988,304.46251 L 202.37988,297.20915 M 205.51177,279.3999 A 0.88582719,0.88582719 0 0 0 206.13814,279.65935 M 206.13814,293.83257 A 0.88582719,0.88582719 0 0 0 205.51176,294.09202 M 215.1929,294.09202 A 0.88582719,0.88582719 0 0 0 214.56652,293.83258 M 217.69839,281.90539 A 0.88582719,0.88582719 0 0 0 217.43894,282.53176 M 217.43894,290.96016 A 0.88582719,0.88582719 0 0 0 217.6984,291.58653 M 214.56652,279.65935 A 0.88582719,0.88582719 0 0 0 215.1929,279.39989 M 203.26572,282.53177 A 0.88582719,0.88582719 0 0 0 203.00627,281.90539 M 203.00627,291.58654 A 0.88582719,0.88582719 0 0 0 203.26572,290.96016 M 203.26572,282.53178 L 203.26572,290.96016 M 214.56652,279.65936 L 206.13814,279.65935 M 215.1929,279.3999 L 218.34004,276.25277 M 220.80665,278.79715 L 217.69841,281.90537 M 217.69842,291.58652 L 220.83012,294.71823 M 218.33241,297.23149 L 215.19295,294.09203 M 205.51181,294.09203 L 202.37235,297.2315 M 199.87457,294.7183 L 203.00628,291.58659 M 203.00628,281.90544 L 199.89806,278.79721 M 202.36466,276.25283 L 205.51179,279.39997 M 217.43896,290.96023 L 217.43896,282.53184 M 206.13816,293.83265 L 214.56653,293.83265 M 220.81557,278.77359 L 228.06891,278.77359 L 228.06892,269.0295 L 218.32483,269.02949 L 218.32483,276.25159 M 218.32483,297.20921 L 218.32483,304.46257 L 228.06892,304.46257 L 228.06892,294.71847 L 220.84683,294.71847" />
      <path
         d="M 733.87596,276.25152 L 733.87596,269.02942 L 724.13188,269.02942 L 724.13188,278.77352 L 731.38524,278.77352 M 731.35394,294.7184 L 724.13185,294.7184 L 724.13184,304.4625 L 733.87593,304.46251 L 733.87593,297.20915 M 737.00782,279.3999 A 0.88582719,0.88582719 0 0 0 737.63419,279.65935 M 737.63419,293.83257 A 0.88582719,0.88582719 0 0 0 737.00781,294.09202 M 746.68895,294.09202 A 0.88582719,0.88582719 0 0 0 746.06257,293.83258 M 749.19444,281.90539 A 0.88582719,0.88582719 0 0 0 748.93499,282.53176 M 748.93499,290.96016 A 0.88582719,0.88582719 0 0 0 749.19445,291.58653 M 746.06257,279.65935 A 0.88582719,0.88582719 0 0 0 746.68895,279.39989 M 734.76177,282.53177 A 0.88582719,0.88582719 0 0 0 734.50232,281.90539 M 734.50232,291.58654 A 0.88582719,0.88582719 0 0 0 734.76177,290.96016 M 734.76177,282.53178 L 734.76177,290.96016 M 746.06257,279.65936 L 737.63419,279.65935 M 746.68895,279.3999 L 749.83609,276.25277 M 752.3027,278.79715 L 749.19446,281.90537 M 749.19447,291.58652 L 752.32617,294.71823 M 749.82846,297.23149 L 746.689,294.09203 M 737.00786,294.09203 L 733.8684,297.2315 M 731.37062,294.7183 L 734.50233,291.58659 M 734.50233,281.90544 L 731.39411,278.79721 M 733.86071,276.25283 L 737.00784,279.39997 M 748.93501,290.96023 L 748.93501,282.53184 M 737.63421,293.83265 L 746.06258,293.83265 M 752.31162,278.77359 L 759.56496,278.77359 L 759.56497,269.0295 L 749.82088,269.02949 L 749.82088,276.25159 M 749.82088,297.20921 L 749.82088,304.46257 L 759.56497,304.46257 L 759.56497,294.71847 L 752.34288,294.71847"
         style="fill:none;stroke:#000000;stroke-width:0.18000001;stroke-linecap:butt;stroke-linejoin:miter;stroke-miterlimit:4;stroke-opacity:1;stroke-dasharray:none"
         id="path3445"
         inkscape:connector-curvature="0" />
    </g>
  </g>
</svg>
