<?xml version="1.0" encoding="UTF-8" standalone="no"?>
<!-- Created with Inkscape (http://www.inkscape.org/) -->

<svg
   xmlns:dc="http://purl.org/dc/elements/1.1/"
   xmlns:cc="http://creativecommons.org/ns#"
   xmlns:rdf="http://www.w3.org/1999/02/22-rdf-syntax-ns#"
   xmlns:svg="http://www.w3.org/2000/svg"
   xmlns="http://www.w3.org/2000/svg"
   xmlns:sodipodi="http://sodipodi.sourceforge.net/DTD/sodipodi-0.dtd"
   xmlns:inkscape="http://www.inkscape.org/namespaces/inkscape"
   width="2160"
   height="1620"
   id="svg3914"
   version="1.1"
   inkscape:version="0.48.2 r9819"
   sodipodi:docname="vpg_vert.svg">
  <defs
     id="defs3916" />
  <sodipodi:namedview
     id="base"
     pagecolor="#ffffff"
     bordercolor="#666666"
     borderopacity="1.0"
     inkscape:pageopacity="0.0"
     inkscape:pageshadow="2"
     inkscape:zoom="0.8317388"
     inkscape:cx="335.8478"
     inkscape:cy="1348.3288"
     inkscape:document-units="mm"
     inkscape:current-layer="layer1"
     showgrid="true"
     units="mm"
     inkscape:window-width="1920"
     inkscape:window-height="996"
     inkscape:window-x="-8"
     inkscape:window-y="-8"
     inkscape:window-maximized="1">
    <inkscape:grid
       type="xygrid"
       id="grid3922"
       empspacing="4"
       visible="true"
       enabled="true"
       snapvisiblegridlinesonly="true"
       units="mm"
       spacingx="0.5mm"
       spacingy="0.5mm" />
  </sodipodi:namedview>
  <metadata
     id="metadata3919">
    <rdf:RDF>
      <cc:Work
         rdf:about="">
        <dc:format>image/svg+xml</dc:format>
        <dc:type
           rdf:resource="http://purl.org/dc/dcmitype/StillImage" />
        <dc:title></dc:title>
      </cc:Work>
    </rdf:RDF>
  </metadata>
  <g
     inkscape:label="Layer 1"
     inkscape:groupmode="layer"
     id="layer1"
     transform="translate(0,567.64025)">
    <path
       style="fill:none;stroke:#000000;stroke-width:0.11760511;stroke-miterlimit:4;stroke-opacity:1"
       d="m 86.855645,-465.99196 478.346485,0 70.8661,70.86614 -0.1474,106.33039 -619.961103,0 0.0298,-106.33039 z"
       id="rect2983"
       inkscape:connector-curvature="0"
       sodipodi:nodetypes="ccccccc" />
    <g
       id="g2993"
       transform="translate(-497.78859,-738.83842)">
      <path
         transform="matrix(0.49580222,0,0,0.49580222,278.65291,-72.369375)"
         d="m 574.01572,971.57483 c 0,5.87074 -4.75917,10.62992 -10.62992,10.62992 -5.87074,0 -10.62992,-4.75918 -10.62992,-10.62992 0,-5.87074 4.75918,-10.62992 10.62992,-10.62992 5.87075,0 10.62992,4.75918 10.62992,10.62992 z"
         sodipodi:ry="10.629921"
         sodipodi:rx="10.629921"
         sodipodi:cy="971.57483"
         sodipodi:cx="563.3858"
         id="path2985"
         style="fill:none;stroke:#000000;stroke-width:0.18000001;stroke-miterlimit:4;stroke-opacity:1;stroke-dasharray:none"
         sodipodi:type="arc" />
      <path
         sodipodi:type="arc"
         style="fill:none;stroke:#000000;stroke-width:0.18000001;stroke-miterlimit:4;stroke-opacity:1;stroke-dasharray:none"
         id="path2987"
         sodipodi:cx="563.3858"
         sodipodi:cy="971.57483"
         sodipodi:rx="10.629921"
         sodipodi:ry="10.629921"
         d="m 574.01572,971.57483 c 0,5.87074 -4.75917,10.62992 -10.62992,10.62992 -5.87074,0 -10.62992,-4.75918 -10.62992,-10.62992 0,-5.87074 4.75918,-10.62992 10.62992,-10.62992 5.87075,0 10.62992,4.75918 10.62992,10.62992 z"
         transform="matrix(0.49580222,0,0,0.49580222,278.65291,-107.80244)" />
      <path
         sodipodi:type="arc"
         style="fill:none;stroke:#000000;stroke-width:0.18000001;stroke-miterlimit:4;stroke-opacity:1;stroke-dasharray:none"
         id="path2989"
         sodipodi:cx="563.3858"
         sodipodi:cy="971.57483"
         sodipodi:rx="10.629921"
         sodipodi:ry="10.629921"
         d="m 574.01572,971.57483 c 0,5.87074 -4.75917,10.62992 -10.62992,10.62992 -5.87074,0 -10.62992,-4.75918 -10.62992,-10.62992 0,-5.87074 4.75918,-10.62992 10.62992,-10.62992 5.87075,0 10.62992,4.75918 10.62992,10.62992 z"
         transform="matrix(0.49580222,0,0,0.49580222,810.14896,-72.369375)" />
      <path
         transform="matrix(0.49580222,0,0,0.49580222,810.14896,-107.80244)"
         d="m 574.01572,971.57483 c 0,5.87074 -4.75917,10.62992 -10.62992,10.62992 -5.87074,0 -10.62992,-4.75918 -10.62992,-10.62992 0,-5.87074 4.75918,-10.62992 10.62992,-10.62992 5.87075,0 10.62992,4.75918 10.62992,10.62992 z"
         sodipodi:ry="10.629921"
         sodipodi:rx="10.629921"
         sodipodi:cy="971.57483"
         sodipodi:cx="563.3858"
         id="path2991"
         style="fill:none;stroke:#000000;stroke-width:0.18000001;stroke-miterlimit:4;stroke-opacity:1;stroke-dasharray:none"
         sodipodi:type="arc" />
    </g>
    <g
       id="g3026"
       transform="translate(-465.90027,-745.91077)">
      <g
         transform="translate(212.5389,5.270331)"
         id="g3014">
        <path
           transform="matrix(0.49580222,0,0,0.49580222,388.63008,-130.92401)"
           d="m 574.01572,971.57483 c 0,5.87074 -4.75917,10.62992 -10.62992,10.62992 -5.87074,0 -10.62992,-4.75918 -10.62992,-10.62992 0,-5.87074 4.75918,-10.62992 10.62992,-10.62992 5.87075,0 10.62992,4.75918 10.62992,10.62992 z"
           sodipodi:ry="10.629921"
           sodipodi:rx="10.629921"
           sodipodi:cy="971.57483"
           sodipodi:cx="563.3858"
           id="path3002"
           style="fill:none;stroke:#000000;stroke-width:0.18000001;stroke-miterlimit:4;stroke-opacity:1;stroke-dasharray:none"
           sodipodi:type="arc" />
        <path
           sodipodi:type="arc"
           style="fill:none;stroke:#000000;stroke-width:0.18000001;stroke-miterlimit:4;stroke-opacity:1;stroke-dasharray:none"
           id="path3004"
           sodipodi:cx="563.3858"
           sodipodi:cy="971.57483"
           sodipodi:rx="10.629921"
           sodipodi:ry="10.629921"
           d="m 574.01572,971.57483 c 0,5.87074 -4.75917,10.62992 -10.62992,10.62992 -5.87074,0 -10.62992,-4.75918 -10.62992,-10.62992 0,-5.87074 4.75918,-10.62992 10.62992,-10.62992 5.87075,0 10.62992,4.75918 10.62992,10.62992 z"
           transform="matrix(0.49580222,0,0,0.49580222,388.63008,-166.35707)" />
      </g>
      <g
         id="g3018"
         transform="translate(35.373555,5.270331)">
        <path
           sodipodi:type="arc"
           style="fill:none;stroke:#000000;stroke-width:0.18000001;stroke-miterlimit:4;stroke-opacity:1;stroke-dasharray:none"
           id="path3020"
           sodipodi:cx="563.3858"
           sodipodi:cy="971.57483"
           sodipodi:rx="10.629921"
           sodipodi:ry="10.629921"
           d="m 574.01572,971.57483 c 0,5.87074 -4.75917,10.62992 -10.62992,10.62992 -5.87074,0 -10.62992,-4.75918 -10.62992,-10.62992 0,-5.87074 4.75918,-10.62992 10.62992,-10.62992 5.87075,0 10.62992,4.75918 10.62992,10.62992 z"
           transform="matrix(0.49580222,0,0,0.49580222,388.63008,-130.92401)" />
        <path
           transform="matrix(0.49580222,0,0,0.49580222,388.63008,-166.35707)"
           d="m 574.01572,971.57483 c 0,5.87074 -4.75917,10.62992 -10.62992,10.62992 -5.87074,0 -10.62992,-4.75918 -10.62992,-10.62992 0,-5.87074 4.75918,-10.62992 10.62992,-10.62992 5.87075,0 10.62992,4.75918 10.62992,10.62992 z"
           sodipodi:ry="10.629921"
           sodipodi:rx="10.629921"
           sodipodi:cy="971.57483"
           sodipodi:cx="563.3858"
           id="path3022"
           style="fill:none;stroke:#000000;stroke-width:0.18000001;stroke-miterlimit:4;stroke-opacity:1;stroke-dasharray:none"
           sodipodi:type="arc" />
      </g>
    </g>
    <g
       id="g3064"
       transform="translate(67.278195,10.629946)">
      <rect
         ry="17.716536"
         rx="17.716536"
         y="-558.11798"
         x="228.58795"
         height="70.866142"
         width="265.74802"
         id="rect3024"
         style="fill:none;stroke:#000000;stroke-width:0.18000001;stroke-miterlimit:4;stroke-opacity:1;stroke-dasharray:none" />
      <g
         transform="translate(-430.45228,-861.02365)"
         id="g3034">
        <g
           transform="translate(212.5389,5.270331)"
           id="g3036">
          <path
             transform="matrix(0.49580222,0,0,0.49580222,388.63008,-130.92401)"
             d="m 574.01572,971.57483 c 0,5.87074 -4.75917,10.62992 -10.62992,10.62992 -5.87074,0 -10.62992,-4.75918 -10.62992,-10.62992 0,-5.87074 4.75918,-10.62992 10.62992,-10.62992 5.87075,0 10.62992,4.75918 10.62992,10.62992 z"
             sodipodi:ry="10.629921"
             sodipodi:rx="10.629921"
             sodipodi:cy="971.57483"
             sodipodi:cx="563.3858"
             id="path3038"
             style="fill:none;stroke:#000000;stroke-width:0.18000001;stroke-miterlimit:4;stroke-opacity:1;stroke-dasharray:none"
             sodipodi:type="arc" />
          <path
             sodipodi:type="arc"
             style="fill:none;stroke:#000000;stroke-width:0.18000001;stroke-miterlimit:4;stroke-opacity:1;stroke-dasharray:none"
             id="path3040"
             sodipodi:cx="563.3858"
             sodipodi:cy="971.57483"
             sodipodi:rx="10.629921"
             sodipodi:ry="10.629921"
             d="m 574.01572,971.57483 c 0,5.87074 -4.75917,10.62992 -10.62992,10.62992 -5.87074,0 -10.62992,-4.75918 -10.62992,-10.62992 0,-5.87074 4.75918,-10.62992 10.62992,-10.62992 5.87075,0 10.62992,4.75918 10.62992,10.62992 z"
             transform="matrix(0.49580222,0,0,0.49580222,388.63008,-166.35707)" />
        </g>
        <g
           id="g3042"
           transform="translate(35.373555,5.270331)">
          <path
             sodipodi:type="arc"
             style="fill:none;stroke:#000000;stroke-width:0.18000001;stroke-miterlimit:4;stroke-opacity:1;stroke-dasharray:none"
             id="path3044"
             sodipodi:cx="563.3858"
             sodipodi:cy="971.57483"
             sodipodi:rx="10.629921"
             sodipodi:ry="10.629921"
             d="m 574.01572,971.57483 c 0,5.87074 -4.75917,10.62992 -10.62992,10.62992 -5.87074,0 -10.62992,-4.75918 -10.62992,-10.62992 0,-5.87074 4.75918,-10.62992 10.62992,-10.62992 5.87075,0 10.62992,4.75918 10.62992,10.62992 z"
             transform="matrix(0.49580222,0,0,0.49580222,388.63008,-130.92401)" />
          <path
             transform="matrix(0.49580222,0,0,0.49580222,388.63008,-166.35707)"
             d="m 574.01572,971.57483 c 0,5.87074 -4.75917,10.62992 -10.62992,10.62992 -5.87074,0 -10.62992,-4.75918 -10.62992,-10.62992 0,-5.87074 4.75918,-10.62992 10.62992,-10.62992 5.87075,0 10.62992,4.75918 10.62992,10.62992 z"
             sodipodi:ry="10.629921"
             sodipodi:rx="10.629921"
             sodipodi:cy="971.57483"
             sodipodi:cx="563.3858"
             id="path3046"
             style="fill:none;stroke:#000000;stroke-width:0.18000001;stroke-miterlimit:4;stroke-opacity:1;stroke-dasharray:none"
             sodipodi:type="arc" />
        </g>
      </g>
    </g>
    <g
       id="g3074"
       transform="translate(-205.51183,-77.952765)">
      <rect
         style="fill:none;stroke:#000000;stroke-width:0.18000001;stroke-miterlimit:4;stroke-opacity:1;stroke-dasharray:none"
         id="rect3048"
         width="265.74802"
         height="70.866142"
         x="232.08661"
         y="-469.53525"
         rx="17.716536"
         ry="17.716536" />
      <g
         id="g3050"
         transform="translate(-426.9536,-772.44094)">
        <g
           id="g3052"
           transform="translate(212.5389,5.270331)">
          <path
             sodipodi:type="arc"
             style="fill:none;stroke:#000000;stroke-width:0.18000001;stroke-miterlimit:4;stroke-opacity:1;stroke-dasharray:none"
             id="path3054"
             sodipodi:cx="563.3858"
             sodipodi:cy="971.57483"
             sodipodi:rx="10.629921"
             sodipodi:ry="10.629921"
             d="m 574.01572,971.57483 c 0,5.87074 -4.75917,10.62992 -10.62992,10.62992 -5.87074,0 -10.62992,-4.75918 -10.62992,-10.62992 0,-5.87074 4.75918,-10.62992 10.62992,-10.62992 5.87075,0 10.62992,4.75918 10.62992,10.62992 z"
             transform="matrix(0.49580222,0,0,0.49580222,388.63008,-130.92401)" />
          <path
             transform="matrix(0.49580222,0,0,0.49580222,388.63008,-166.35707)"
             d="m 574.01572,971.57483 c 0,5.87074 -4.75917,10.62992 -10.62992,10.62992 -5.87074,0 -10.62992,-4.75918 -10.62992,-10.62992 0,-5.87074 4.75918,-10.62992 10.62992,-10.62992 5.87075,0 10.62992,4.75918 10.62992,10.62992 z"
             sodipodi:ry="10.629921"
             sodipodi:rx="10.629921"
             sodipodi:cy="971.57483"
             sodipodi:cx="563.3858"
             id="path3056"
             style="fill:none;stroke:#000000;stroke-width:0.18000001;stroke-miterlimit:4;stroke-opacity:1;stroke-dasharray:none"
             sodipodi:type="arc" />
        </g>
        <g
           transform="translate(35.373555,5.270331)"
           id="g3058">
          <path
             transform="matrix(0.49580222,0,0,0.49580222,388.63008,-130.92401)"
             d="m 574.01572,971.57483 c 0,5.87074 -4.75917,10.62992 -10.62992,10.62992 -5.87074,0 -10.62992,-4.75918 -10.62992,-10.62992 0,-5.87074 4.75918,-10.62992 10.62992,-10.62992 5.87075,0 10.62992,4.75918 10.62992,10.62992 z"
             sodipodi:ry="10.629921"
             sodipodi:rx="10.629921"
             sodipodi:cy="971.57483"
             sodipodi:cx="563.3858"
             id="path3060"
             style="fill:none;stroke:#000000;stroke-width:0.18000001;stroke-miterlimit:4;stroke-opacity:1;stroke-dasharray:none"
             sodipodi:type="arc" />
          <path
             sodipodi:type="arc"
             style="fill:none;stroke:#000000;stroke-width:0.18000001;stroke-miterlimit:4;stroke-opacity:1;stroke-dasharray:none"
             id="path3062"
             sodipodi:cx="563.3858"
             sodipodi:cy="971.57483"
             sodipodi:rx="10.629921"
             sodipodi:ry="10.629921"
             d="m 574.01572,971.57483 c 0,5.87074 -4.75917,10.62992 -10.62992,10.62992 -5.87074,0 -10.62992,-4.75918 -10.62992,-10.62992 0,-5.87074 4.75918,-10.62992 10.62992,-10.62992 5.87075,0 10.62992,4.75918 10.62992,10.62992 z"
             transform="matrix(0.49580222,0,0,0.49580222,388.63008,-166.35707)" />
        </g>
      </g>
    </g>
  </g>
</svg>
